<mxfile host="app.diagrams.net" modified="2022-03-30T15:31:42.678Z" agent="5.0 (Windows NT 10.0; Win64; x64) AppleWebKit/537.36 (KHTML, like Gecko) Chrome/99.0.4844.84 Safari/537.36" etag="3RZ_Z_VLURVd8ltqvQbh" version="17.2.5" type="github" pages="2">
  <diagram id="C5RBs43oDa-KdzZeNtuy" name="Page-1">
    <mxGraphModel dx="2773" dy="1120" grid="1" gridSize="10" guides="1" tooltips="1" connect="1" arrows="1" fold="1" page="1" pageScale="1" pageWidth="827" pageHeight="1169" math="0" shadow="0">
      <root>
        <mxCell id="WIyWlLk6GJQsqaUBKTNV-0" />
        <mxCell id="WIyWlLk6GJQsqaUBKTNV-1" parent="WIyWlLk6GJQsqaUBKTNV-0" />
        <mxCell id="TgzZdIN7OXh--3jAK0nj-32" value="" style="group" vertex="1" connectable="0" parent="WIyWlLk6GJQsqaUBKTNV-1">
          <mxGeometry x="-799" y="200" width="430" height="710" as="geometry" />
        </mxCell>
        <mxCell id="TgzZdIN7OXh--3jAK0nj-29" value="" style="rounded=0;whiteSpace=wrap;html=1;fontFamily=Helvetica;fontSize=11;fontColor=default;" vertex="1" parent="TgzZdIN7OXh--3jAK0nj-32">
          <mxGeometry y="40" width="430" height="710" as="geometry" />
        </mxCell>
        <mxCell id="TgzZdIN7OXh--3jAK0nj-31" value="Main" style="text;html=1;strokeColor=none;fillColor=none;align=center;verticalAlign=middle;whiteSpace=wrap;rounded=0;fontFamily=Helvetica;fontSize=19;fontColor=default;" vertex="1" parent="TgzZdIN7OXh--3jAK0nj-32">
          <mxGeometry x="186.33333333333334" y="9.594594594594595" width="57.333333333333336" height="28.783783783783782" as="geometry" />
        </mxCell>
        <mxCell id="SZKecO72ImMTuySL_LnB-146" value="OutputBuilder" style="swimlane;fontStyle=0;align=center;verticalAlign=top;childLayout=stackLayout;horizontal=1;startSize=26;horizontalStack=0;resizeParent=1;resizeLast=0;collapsible=1;marginBottom=0;rounded=0;shadow=0;strokeWidth=1;" vertex="1" parent="TgzZdIN7OXh--3jAK0nj-32">
          <mxGeometry x="30" y="91" width="370" height="120" as="geometry">
            <mxRectangle x="130" y="380" width="160" height="26" as="alternateBounds" />
          </mxGeometry>
        </mxCell>
        <mxCell id="SZKecO72ImMTuySL_LnB-147" value="- vector&lt;vector&lt;string&gt;&gt; outputList" style="text;align=left;verticalAlign=top;spacingLeft=4;spacingRight=4;overflow=hidden;rotatable=0;points=[[0,0.5],[1,0.5]];portConstraint=eastwest;" vertex="1" parent="SZKecO72ImMTuySL_LnB-146">
          <mxGeometry y="26" width="370" height="26" as="geometry" />
        </mxCell>
        <mxCell id="SZKecO72ImMTuySL_LnB-150" value="" style="line;html=1;strokeWidth=1;align=left;verticalAlign=middle;spacingTop=-1;spacingLeft=3;spacingRight=3;rotatable=0;labelPosition=right;points=[];portConstraint=eastwest;" vertex="1" parent="SZKecO72ImMTuySL_LnB-146">
          <mxGeometry y="52" width="370" height="8" as="geometry" />
        </mxCell>
        <mxCell id="SZKecO72ImMTuySL_LnB-151" value="+ printResult() : void" style="text;align=left;verticalAlign=top;spacingLeft=4;spacingRight=4;overflow=hidden;rotatable=0;points=[[0,0.5],[1,0.5]];portConstraint=eastwest;fontStyle=4" vertex="1" parent="SZKecO72ImMTuySL_LnB-146">
          <mxGeometry y="60" width="370" height="30" as="geometry" />
        </mxCell>
        <mxCell id="TgzZdIN7OXh--3jAK0nj-35" value="+ addResult(vector&lt;string&gt;) : void" style="text;align=left;verticalAlign=top;spacingLeft=4;spacingRight=4;overflow=hidden;rotatable=0;points=[[0,0.5],[1,0.5]];portConstraint=eastwest;fontStyle=4" vertex="1" parent="SZKecO72ImMTuySL_LnB-146">
          <mxGeometry y="90" width="370" height="30" as="geometry" />
        </mxCell>
        <mxCell id="SZKecO72ImMTuySL_LnB-33" value="InputInterpreter" style="swimlane;fontStyle=0;align=center;verticalAlign=top;childLayout=stackLayout;horizontal=1;startSize=26;horizontalStack=0;resizeParent=1;resizeLast=0;collapsible=1;marginBottom=0;rounded=0;shadow=0;strokeWidth=1;" vertex="1" parent="TgzZdIN7OXh--3jAK0nj-32">
          <mxGeometry x="29" y="520" width="370" height="172" as="geometry">
            <mxRectangle x="130" y="380" width="160" height="26" as="alternateBounds" />
          </mxGeometry>
        </mxCell>
        <mxCell id="SZKecO72ImMTuySL_LnB-35" value="" style="line;html=1;strokeWidth=1;align=left;verticalAlign=middle;spacingTop=-1;spacingLeft=3;spacingRight=3;rotatable=0;labelPosition=right;points=[];portConstraint=eastwest;" vertex="1" parent="SZKecO72ImMTuySL_LnB-33">
          <mxGeometry y="26" width="370" height="8" as="geometry" />
        </mxCell>
        <mxCell id="SZKecO72ImMTuySL_LnB-36" value="+ InputInterpreter(string input)" style="text;align=left;verticalAlign=top;spacingLeft=4;spacingRight=4;overflow=hidden;rotatable=0;points=[[0,0.5],[1,0.5]];portConstraint=eastwest;fontStyle=4" vertex="1" parent="SZKecO72ImMTuySL_LnB-33">
          <mxGeometry y="34" width="370" height="30" as="geometry" />
        </mxCell>
        <mxCell id="TgzZdIN7OXh--3jAK0nj-70" value="+ runAllCommand() : void" style="text;align=left;verticalAlign=top;spacingLeft=4;spacingRight=4;overflow=hidden;rotatable=0;points=[[0,0.5],[1,0.5]];portConstraint=eastwest;fontStyle=4" vertex="1" parent="SZKecO72ImMTuySL_LnB-33">
          <mxGeometry y="64" width="370" height="30" as="geometry" />
        </mxCell>
        <mxCell id="SZKecO72ImMTuySL_LnB-0" value="Employee" style="swimlane;fontStyle=0;align=center;verticalAlign=top;childLayout=stackLayout;horizontal=1;startSize=26;horizontalStack=0;resizeParent=1;resizeLast=0;collapsible=1;marginBottom=0;rounded=0;shadow=0;strokeWidth=1;" vertex="1" parent="WIyWlLk6GJQsqaUBKTNV-1">
          <mxGeometry x="860" y="430" width="370" height="620" as="geometry">
            <mxRectangle x="130" y="380" width="160" height="26" as="alternateBounds" />
          </mxGeometry>
        </mxCell>
        <mxCell id="SZKecO72ImMTuySL_LnB-1" value="- string employeeNum&#xa;" style="text;align=left;verticalAlign=top;spacingLeft=4;spacingRight=4;overflow=hidden;rotatable=0;points=[[0,0.5],[1,0.5]];portConstraint=eastwest;" vertex="1" parent="SZKecO72ImMTuySL_LnB-0">
          <mxGeometry y="26" width="370" height="26" as="geometry" />
        </mxCell>
        <mxCell id="SZKecO72ImMTuySL_LnB-2" value="- string name" style="text;align=left;verticalAlign=top;spacingLeft=4;spacingRight=4;overflow=hidden;rotatable=0;points=[[0,0.5],[1,0.5]];portConstraint=eastwest;rounded=0;shadow=0;html=0;" vertex="1" parent="SZKecO72ImMTuySL_LnB-0">
          <mxGeometry y="52" width="370" height="28" as="geometry" />
        </mxCell>
        <mxCell id="SZKecO72ImMTuySL_LnB-6" value="- string cl" style="text;align=left;verticalAlign=top;spacingLeft=4;spacingRight=4;overflow=hidden;rotatable=0;points=[[0,0.5],[1,0.5]];portConstraint=eastwest;rounded=0;shadow=0;html=0;" vertex="1" parent="SZKecO72ImMTuySL_LnB-0">
          <mxGeometry y="80" width="370" height="28" as="geometry" />
        </mxCell>
        <mxCell id="SZKecO72ImMTuySL_LnB-7" value="- string phoneNum" style="text;align=left;verticalAlign=top;spacingLeft=4;spacingRight=4;overflow=hidden;rotatable=0;points=[[0,0.5],[1,0.5]];portConstraint=eastwest;rounded=0;shadow=0;html=0;" vertex="1" parent="SZKecO72ImMTuySL_LnB-0">
          <mxGeometry y="108" width="370" height="28" as="geometry" />
        </mxCell>
        <mxCell id="SZKecO72ImMTuySL_LnB-8" value="- string birthday" style="text;align=left;verticalAlign=top;spacingLeft=4;spacingRight=4;overflow=hidden;rotatable=0;points=[[0,0.5],[1,0.5]];portConstraint=eastwest;rounded=0;shadow=0;html=0;" vertex="1" parent="SZKecO72ImMTuySL_LnB-0">
          <mxGeometry y="136" width="370" height="28" as="geometry" />
        </mxCell>
        <mxCell id="SZKecO72ImMTuySL_LnB-9" value="- string certi" style="text;align=left;verticalAlign=top;spacingLeft=4;spacingRight=4;overflow=hidden;rotatable=0;points=[[0,0.5],[1,0.5]];portConstraint=eastwest;rounded=0;shadow=0;html=0;" vertex="1" parent="SZKecO72ImMTuySL_LnB-0">
          <mxGeometry y="164" width="370" height="28" as="geometry" />
        </mxCell>
        <mxCell id="SZKecO72ImMTuySL_LnB-3" value="" style="line;html=1;strokeWidth=1;align=left;verticalAlign=middle;spacingTop=-1;spacingLeft=3;spacingRight=3;rotatable=0;labelPosition=right;points=[];portConstraint=eastwest;" vertex="1" parent="SZKecO72ImMTuySL_LnB-0">
          <mxGeometry y="192" width="370" height="8" as="geometry" />
        </mxCell>
        <mxCell id="SZKecO72ImMTuySL_LnB-4" value="+ Employee(employeeNum, name, cl, phoneNum, birthday, certi)" style="text;align=left;verticalAlign=top;spacingLeft=4;spacingRight=4;overflow=hidden;rotatable=0;points=[[0,0.5],[1,0.5]];portConstraint=eastwest;fontStyle=4" vertex="1" parent="SZKecO72ImMTuySL_LnB-0">
          <mxGeometry y="200" width="370" height="30" as="geometry" />
        </mxCell>
        <mxCell id="TgzZdIN7OXh--3jAK0nj-48" value="+ operator &lt;(const Employee&amp; obj) : bool" style="text;align=left;verticalAlign=top;spacingLeft=4;spacingRight=4;overflow=hidden;rotatable=0;points=[[0,0.5],[1,0.5]];portConstraint=eastwest;fontStyle=4" vertex="1" parent="SZKecO72ImMTuySL_LnB-0">
          <mxGeometry y="230" width="370" height="30" as="geometry" />
        </mxCell>
        <mxCell id="SZKecO72ImMTuySL_LnB-155" value="+ getEmployeeNum() : string" style="text;align=left;verticalAlign=top;spacingLeft=4;spacingRight=4;overflow=hidden;rotatable=0;points=[[0,0.5],[1,0.5]];portConstraint=eastwest;fontStyle=4" vertex="1" parent="SZKecO72ImMTuySL_LnB-0">
          <mxGeometry y="260" width="370" height="30" as="geometry" />
        </mxCell>
        <mxCell id="SZKecO72ImMTuySL_LnB-21" value="+ getName() : string" style="text;align=left;verticalAlign=top;spacingLeft=4;spacingRight=4;overflow=hidden;rotatable=0;points=[[0,0.5],[1,0.5]];portConstraint=eastwest;fontStyle=4" vertex="1" parent="SZKecO72ImMTuySL_LnB-0">
          <mxGeometry y="290" width="370" height="30" as="geometry" />
        </mxCell>
        <mxCell id="SZKecO72ImMTuySL_LnB-100" value="+ setName(string name) : void" style="text;align=left;verticalAlign=top;spacingLeft=4;spacingRight=4;overflow=hidden;rotatable=0;points=[[0,0.5],[1,0.5]];portConstraint=eastwest;fontStyle=4" vertex="1" parent="SZKecO72ImMTuySL_LnB-0">
          <mxGeometry y="320" width="370" height="30" as="geometry" />
        </mxCell>
        <mxCell id="SZKecO72ImMTuySL_LnB-24" value="+ getCL() : string" style="text;align=left;verticalAlign=top;spacingLeft=4;spacingRight=4;overflow=hidden;rotatable=0;points=[[0,0.5],[1,0.5]];portConstraint=eastwest;fontStyle=4" vertex="1" parent="SZKecO72ImMTuySL_LnB-0">
          <mxGeometry y="350" width="370" height="30" as="geometry" />
        </mxCell>
        <mxCell id="SZKecO72ImMTuySL_LnB-99" value="+ setCL(string cl) : void" style="text;align=left;verticalAlign=top;spacingLeft=4;spacingRight=4;overflow=hidden;rotatable=0;points=[[0,0.5],[1,0.5]];portConstraint=eastwest;fontStyle=4" vertex="1" parent="SZKecO72ImMTuySL_LnB-0">
          <mxGeometry y="380" width="370" height="30" as="geometry" />
        </mxCell>
        <mxCell id="SZKecO72ImMTuySL_LnB-25" value="+ getPhoneNum() : string" style="text;align=left;verticalAlign=top;spacingLeft=4;spacingRight=4;overflow=hidden;rotatable=0;points=[[0,0.5],[1,0.5]];portConstraint=eastwest;fontStyle=4" vertex="1" parent="SZKecO72ImMTuySL_LnB-0">
          <mxGeometry y="410" width="370" height="30" as="geometry" />
        </mxCell>
        <mxCell id="SZKecO72ImMTuySL_LnB-98" value="+ setPhoneNum(string phoneNum) : void" style="text;align=left;verticalAlign=top;spacingLeft=4;spacingRight=4;overflow=hidden;rotatable=0;points=[[0,0.5],[1,0.5]];portConstraint=eastwest;fontStyle=4" vertex="1" parent="SZKecO72ImMTuySL_LnB-0">
          <mxGeometry y="440" width="370" height="30" as="geometry" />
        </mxCell>
        <mxCell id="SZKecO72ImMTuySL_LnB-26" value="+ getBirthday() : string" style="text;align=left;verticalAlign=top;spacingLeft=4;spacingRight=4;overflow=hidden;rotatable=0;points=[[0,0.5],[1,0.5]];portConstraint=eastwest;fontStyle=4" vertex="1" parent="SZKecO72ImMTuySL_LnB-0">
          <mxGeometry y="470" width="370" height="30" as="geometry" />
        </mxCell>
        <mxCell id="SZKecO72ImMTuySL_LnB-97" value="+ setBirthday(string birthday) : void" style="text;align=left;verticalAlign=top;spacingLeft=4;spacingRight=4;overflow=hidden;rotatable=0;points=[[0,0.5],[1,0.5]];portConstraint=eastwest;fontStyle=4" vertex="1" parent="SZKecO72ImMTuySL_LnB-0">
          <mxGeometry y="500" width="370" height="30" as="geometry" />
        </mxCell>
        <mxCell id="SZKecO72ImMTuySL_LnB-27" value="+ getCerti() : string" style="text;align=left;verticalAlign=top;spacingLeft=4;spacingRight=4;overflow=hidden;rotatable=0;points=[[0,0.5],[1,0.5]];portConstraint=eastwest;fontStyle=4" vertex="1" parent="SZKecO72ImMTuySL_LnB-0">
          <mxGeometry y="530" width="370" height="30" as="geometry" />
        </mxCell>
        <mxCell id="SZKecO72ImMTuySL_LnB-96" value="+ setCerti(string certi) : void" style="text;align=left;verticalAlign=top;spacingLeft=4;spacingRight=4;overflow=hidden;rotatable=0;points=[[0,0.5],[1,0.5]];portConstraint=eastwest;fontStyle=4" vertex="1" parent="SZKecO72ImMTuySL_LnB-0">
          <mxGeometry y="560" width="370" height="30" as="geometry" />
        </mxCell>
        <mxCell id="SDovXiUHIpcLB9_Pdx8c-0" value="+ toString() : string" style="text;align=left;verticalAlign=top;spacingLeft=4;spacingRight=4;overflow=hidden;rotatable=0;points=[[0,0.5],[1,0.5]];portConstraint=eastwest;fontStyle=4" vertex="1" parent="SZKecO72ImMTuySL_LnB-0">
          <mxGeometry y="590" width="370" height="30" as="geometry" />
        </mxCell>
        <mxCell id="SZKecO72ImMTuySL_LnB-10" value="EmployeeManagement" style="swimlane;fontStyle=0;align=center;verticalAlign=top;childLayout=stackLayout;horizontal=1;startSize=26;horizontalStack=0;resizeParent=1;resizeLast=0;collapsible=1;marginBottom=0;rounded=0;shadow=0;strokeWidth=1;" vertex="1" parent="WIyWlLk6GJQsqaUBKTNV-1">
          <mxGeometry x="210" y="600" width="550" height="240" as="geometry">
            <mxRectangle x="130" y="380" width="160" height="26" as="alternateBounds" />
          </mxGeometry>
        </mxCell>
        <mxCell id="SZKecO72ImMTuySL_LnB-11" value="- vector&lt;Employee&gt; employList" style="text;align=left;verticalAlign=top;spacingLeft=4;spacingRight=4;overflow=hidden;rotatable=0;points=[[0,0.5],[1,0.5]];portConstraint=eastwest;" vertex="1" parent="SZKecO72ImMTuySL_LnB-10">
          <mxGeometry y="26" width="550" height="26" as="geometry" />
        </mxCell>
        <mxCell id="SZKecO72ImMTuySL_LnB-17" value="" style="line;html=1;strokeWidth=1;align=left;verticalAlign=middle;spacingTop=-1;spacingLeft=3;spacingRight=3;rotatable=0;labelPosition=right;points=[];portConstraint=eastwest;" vertex="1" parent="SZKecO72ImMTuySL_LnB-10">
          <mxGeometry y="52" width="550" height="8" as="geometry" />
        </mxCell>
        <mxCell id="SZKecO72ImMTuySL_LnB-18" value="+ EmployeeManagement()" style="text;align=left;verticalAlign=top;spacingLeft=4;spacingRight=4;overflow=hidden;rotatable=0;points=[[0,0.5],[1,0.5]];portConstraint=eastwest;fontStyle=4" vertex="1" parent="SZKecO72ImMTuySL_LnB-10">
          <mxGeometry y="60" width="550" height="30" as="geometry" />
        </mxCell>
        <mxCell id="SZKecO72ImMTuySL_LnB-28" value="+ addEmployee(employeeNum, name, cl, phoneNum, birthday, certi) : void " style="text;align=left;verticalAlign=top;spacingLeft=4;spacingRight=4;overflow=hidden;rotatable=0;points=[[0,0.5],[1,0.5]];portConstraint=eastwest;fontStyle=4" vertex="1" parent="SZKecO72ImMTuySL_LnB-10">
          <mxGeometry y="90" width="550" height="30" as="geometry" />
        </mxCell>
        <mxCell id="SZKecO72ImMTuySL_LnB-39" value="+ deleteEmployee(Condition) : vector&lt;Employee&gt;" style="text;align=left;verticalAlign=top;spacingLeft=4;spacingRight=4;overflow=hidden;rotatable=0;points=[[0,0.5],[1,0.5]];portConstraint=eastwest;fontStyle=4" vertex="1" parent="SZKecO72ImMTuySL_LnB-10">
          <mxGeometry y="120" width="550" height="30" as="geometry" />
        </mxCell>
        <mxCell id="SZKecO72ImMTuySL_LnB-71" value="+ serachEmployee(Condition) : vector&lt;Employee&gt;" style="text;align=left;verticalAlign=top;spacingLeft=4;spacingRight=4;overflow=hidden;rotatable=0;points=[[0,0.5],[1,0.5]];portConstraint=eastwest;fontStyle=4" vertex="1" parent="SZKecO72ImMTuySL_LnB-10">
          <mxGeometry y="150" width="550" height="30" as="geometry" />
        </mxCell>
        <mxCell id="SZKecO72ImMTuySL_LnB-72" value="+ modifyEmployee(Condition, string column, string modData) : vector&lt;Employee&gt;" style="text;align=left;verticalAlign=top;spacingLeft=4;spacingRight=4;overflow=hidden;rotatable=0;points=[[0,0.5],[1,0.5]];portConstraint=eastwest;fontStyle=4" vertex="1" parent="SZKecO72ImMTuySL_LnB-10">
          <mxGeometry y="180" width="550" height="30" as="geometry" />
        </mxCell>
        <mxCell id="TgzZdIN7OXh--3jAK0nj-59" value="+ sortList() : vector&lt;Employee&gt;" style="text;align=left;verticalAlign=top;spacingLeft=4;spacingRight=4;overflow=hidden;rotatable=0;points=[[0,0.5],[1,0.5]];portConstraint=eastwest;fontStyle=4" vertex="1" parent="SZKecO72ImMTuySL_LnB-10">
          <mxGeometry y="210" width="550" height="30" as="geometry" />
        </mxCell>
        <mxCell id="SZKecO72ImMTuySL_LnB-69" value="" style="endArrow=classic;html=1;rounded=0;" edge="1" parent="WIyWlLk6GJQsqaUBKTNV-1" source="SZKecO72ImMTuySL_LnB-10" target="SZKecO72ImMTuySL_LnB-0">
          <mxGeometry width="50" height="50" relative="1" as="geometry">
            <mxPoint x="320" y="418" as="sourcePoint" />
            <mxPoint x="200.96000000000004" y="464.0400000000002" as="targetPoint" />
          </mxGeometry>
        </mxCell>
        <mxCell id="SZKecO72ImMTuySL_LnB-223" value="" style="endArrow=block;endSize=16;endFill=0;html=1;rounded=0;edgeStyle=elbowEdgeStyle;" edge="1" parent="WIyWlLk6GJQsqaUBKTNV-1" source="TgzZdIN7OXh--3jAK0nj-52" target="SZKecO72ImMTuySL_LnB-137">
          <mxGeometry relative="1" as="geometry">
            <mxPoint x="-203.75" y="1301" as="sourcePoint" />
          </mxGeometry>
        </mxCell>
        <mxCell id="TgzZdIN7OXh--3jAK0nj-7" value="" style="edgeStyle=elbowEdgeStyle;shape=connector;rounded=0;orthogonalLoop=1;jettySize=auto;html=1;labelBackgroundColor=default;fontFamily=Helvetica;fontSize=11;fontColor=default;endArrow=block;endFill=0;endSize=16;strokeColor=default;startArrow=none;" edge="1" parent="WIyWlLk6GJQsqaUBKTNV-1" source="TgzZdIN7OXh--3jAK0nj-52" target="SZKecO72ImMTuySL_LnB-137">
          <mxGeometry relative="1" as="geometry">
            <mxPoint x="-203.75" y="1180" as="sourcePoint" />
          </mxGeometry>
        </mxCell>
        <mxCell id="TgzZdIN7OXh--3jAK0nj-14" value="" style="edgeStyle=elbowEdgeStyle;shape=connector;rounded=0;orthogonalLoop=1;jettySize=auto;html=1;labelBackgroundColor=default;fontFamily=Helvetica;fontSize=11;fontColor=default;endArrow=block;endFill=0;endSize=16;strokeColor=default;" edge="1" parent="WIyWlLk6GJQsqaUBKTNV-1" source="TgzZdIN7OXh--3jAK0nj-50" target="SZKecO72ImMTuySL_LnB-137">
          <mxGeometry relative="1" as="geometry">
            <mxPoint x="-203.75" y="1420" as="sourcePoint" />
          </mxGeometry>
        </mxCell>
        <mxCell id="TgzZdIN7OXh--3jAK0nj-18" value="" style="edgeStyle=elbowEdgeStyle;shape=connector;rounded=0;orthogonalLoop=1;jettySize=auto;html=1;labelBackgroundColor=default;fontFamily=Helvetica;fontSize=11;fontColor=default;endArrow=block;endFill=0;endSize=16;strokeColor=default;" edge="1" parent="WIyWlLk6GJQsqaUBKTNV-1" source="TgzZdIN7OXh--3jAK0nj-43" target="SZKecO72ImMTuySL_LnB-137">
          <mxGeometry relative="1" as="geometry" />
        </mxCell>
        <mxCell id="SZKecO72ImMTuySL_LnB-137" value="Command" style="swimlane;fontStyle=0;align=center;verticalAlign=top;childLayout=stackLayout;horizontal=1;startSize=26;horizontalStack=0;resizeParent=1;resizeLast=0;collapsible=1;marginBottom=0;rounded=0;shadow=0;strokeWidth=1;" vertex="1" parent="WIyWlLk6GJQsqaUBKTNV-1">
          <mxGeometry x="-503.75" y="1310" width="220" height="216" as="geometry">
            <mxRectangle x="130" y="380" width="160" height="26" as="alternateBounds" />
          </mxGeometry>
        </mxCell>
        <mxCell id="TgzZdIN7OXh--3jAK0nj-25" value="- EmployeeManagement EM" style="text;align=left;verticalAlign=top;spacingLeft=4;spacingRight=4;overflow=hidden;rotatable=0;points=[[0,0.5],[1,0.5]];portConstraint=eastwest;" vertex="1" parent="SZKecO72ImMTuySL_LnB-137">
          <mxGeometry y="26" width="220" height="26" as="geometry" />
        </mxCell>
        <mxCell id="SDovXiUHIpcLB9_Pdx8c-12" value="- string command" style="text;align=left;verticalAlign=top;spacingLeft=4;spacingRight=4;overflow=hidden;rotatable=0;points=[[0,0.5],[1,0.5]];portConstraint=eastwest;" vertex="1" parent="SZKecO72ImMTuySL_LnB-137">
          <mxGeometry y="52" width="220" height="26" as="geometry" />
        </mxCell>
        <mxCell id="TgzZdIN7OXh--3jAK0nj-78" value="- char option1" style="text;align=left;verticalAlign=top;spacingLeft=4;spacingRight=4;overflow=hidden;rotatable=0;points=[[0,0.5],[1,0.5]];portConstraint=eastwest;" vertex="1" parent="SZKecO72ImMTuySL_LnB-137">
          <mxGeometry y="78" width="220" height="26" as="geometry" />
        </mxCell>
        <mxCell id="TgzZdIN7OXh--3jAK0nj-79" value="- Condition option2" style="text;align=left;verticalAlign=top;spacingLeft=4;spacingRight=4;overflow=hidden;rotatable=0;points=[[0,0.5],[1,0.5]];portConstraint=eastwest;" vertex="1" parent="SZKecO72ImMTuySL_LnB-137">
          <mxGeometry y="104" width="220" height="26" as="geometry" />
        </mxCell>
        <mxCell id="TgzZdIN7OXh--3jAK0nj-94" value="- string result" style="text;align=left;verticalAlign=top;spacingLeft=4;spacingRight=4;overflow=hidden;rotatable=0;points=[[0,0.5],[1,0.5]];portConstraint=eastwest;" vertex="1" parent="SZKecO72ImMTuySL_LnB-137">
          <mxGeometry y="130" width="220" height="26" as="geometry" />
        </mxCell>
        <mxCell id="SZKecO72ImMTuySL_LnB-141" value="" style="line;html=1;strokeWidth=1;align=left;verticalAlign=middle;spacingTop=-1;spacingLeft=3;spacingRight=3;rotatable=0;labelPosition=right;points=[];portConstraint=eastwest;" vertex="1" parent="SZKecO72ImMTuySL_LnB-137">
          <mxGeometry y="156" width="220" height="8" as="geometry" />
        </mxCell>
        <mxCell id="TgzZdIN7OXh--3jAK0nj-72" value="+ checkValid() : bool" style="text;align=left;verticalAlign=top;spacingLeft=4;spacingRight=4;overflow=hidden;rotatable=0;points=[[0,0.5],[1,0.5]];portConstraint=eastwest;fontStyle=4" vertex="1" parent="SZKecO72ImMTuySL_LnB-137">
          <mxGeometry y="164" width="220" height="26" as="geometry" />
        </mxCell>
        <mxCell id="TgzZdIN7OXh--3jAK0nj-96" value="+ makeResult : string" style="text;align=left;verticalAlign=top;spacingLeft=4;spacingRight=4;overflow=hidden;rotatable=0;points=[[0,0.5],[1,0.5]];portConstraint=eastwest;fontStyle=4" vertex="1" parent="SZKecO72ImMTuySL_LnB-137">
          <mxGeometry y="190" width="220" height="26" as="geometry" />
        </mxCell>
        <mxCell id="SZKecO72ImMTuySL_LnB-193" value="" style="group" vertex="1" connectable="0" parent="WIyWlLk6GJQsqaUBKTNV-1">
          <mxGeometry x="-980" y="1940" width="1350" height="484" as="geometry" />
        </mxCell>
        <mxCell id="SZKecO72ImMTuySL_LnB-131" value="" style="group" vertex="1" connectable="0" parent="SZKecO72ImMTuySL_LnB-193">
          <mxGeometry y="40" width="1350" height="444" as="geometry" />
        </mxCell>
        <mxCell id="SZKecO72ImMTuySL_LnB-77" value="ConditionCL" style="swimlane;fontStyle=0;align=center;verticalAlign=top;childLayout=stackLayout;horizontal=1;startSize=26;horizontalStack=0;resizeParent=1;resizeLast=0;collapsible=1;marginBottom=0;rounded=0;shadow=0;strokeWidth=1;" vertex="1" parent="SZKecO72ImMTuySL_LnB-131">
          <mxGeometry x="285" y="180" width="160" height="94" as="geometry">
            <mxRectangle x="130" y="380" width="160" height="26" as="alternateBounds" />
          </mxGeometry>
        </mxCell>
        <mxCell id="SZKecO72ImMTuySL_LnB-78" value="+ ConditionCL(string)" style="text;align=left;verticalAlign=top;spacingLeft=4;spacingRight=4;overflow=hidden;rotatable=0;points=[[0,0.5],[1,0.5]];portConstraint=eastwest;fontStyle=4" vertex="1" parent="SZKecO72ImMTuySL_LnB-77">
          <mxGeometry y="26" width="160" height="34" as="geometry" />
        </mxCell>
        <mxCell id="SZKecO72ImMTuySL_LnB-200" value="+ isMatch(Employee) : bool" style="text;align=left;verticalAlign=top;spacingLeft=4;spacingRight=4;overflow=hidden;rotatable=0;points=[[0,0.5],[1,0.5]];portConstraint=eastwest;fontStyle=4" vertex="1" parent="SZKecO72ImMTuySL_LnB-77">
          <mxGeometry y="60" width="160" height="34" as="geometry" />
        </mxCell>
        <mxCell id="SZKecO72ImMTuySL_LnB-79" value="ConditionPhoneNumber" style="swimlane;fontStyle=0;align=center;verticalAlign=top;childLayout=stackLayout;horizontal=1;startSize=26;horizontalStack=0;resizeParent=1;resizeLast=0;collapsible=1;marginBottom=0;rounded=0;shadow=0;strokeWidth=1;" vertex="1" parent="SZKecO72ImMTuySL_LnB-131">
          <mxGeometry x="492.5" y="180" width="185" height="94" as="geometry">
            <mxRectangle x="130" y="380" width="160" height="26" as="alternateBounds" />
          </mxGeometry>
        </mxCell>
        <mxCell id="SZKecO72ImMTuySL_LnB-80" value="+ ConditionPhoneNumber(string)" style="text;align=left;verticalAlign=top;spacingLeft=4;spacingRight=4;overflow=hidden;rotatable=0;points=[[0,0.5],[1,0.5]];portConstraint=eastwest;fontStyle=4" vertex="1" parent="SZKecO72ImMTuySL_LnB-79">
          <mxGeometry y="26" width="185" height="34" as="geometry" />
        </mxCell>
        <mxCell id="SZKecO72ImMTuySL_LnB-196" value="+ isMatch(Employee) : bool" style="text;align=left;verticalAlign=top;spacingLeft=4;spacingRight=4;overflow=hidden;rotatable=0;points=[[0,0.5],[1,0.5]];portConstraint=eastwest;fontStyle=4" vertex="1" parent="SZKecO72ImMTuySL_LnB-79">
          <mxGeometry y="60" width="185" height="34" as="geometry" />
        </mxCell>
        <mxCell id="SZKecO72ImMTuySL_LnB-81" value="ConditionCerti" style="swimlane;fontStyle=0;align=center;verticalAlign=top;childLayout=stackLayout;horizontal=1;startSize=26;horizontalStack=0;resizeParent=1;resizeLast=0;collapsible=1;marginBottom=0;rounded=0;shadow=0;strokeWidth=1;" vertex="1" parent="SZKecO72ImMTuySL_LnB-131">
          <mxGeometry x="790" y="180" width="160" height="94" as="geometry">
            <mxRectangle x="130" y="380" width="160" height="26" as="alternateBounds" />
          </mxGeometry>
        </mxCell>
        <mxCell id="SZKecO72ImMTuySL_LnB-82" value="+ ConditionCerti(string)" style="text;align=left;verticalAlign=top;spacingLeft=4;spacingRight=4;overflow=hidden;rotatable=0;points=[[0,0.5],[1,0.5]];portConstraint=eastwest;fontStyle=4" vertex="1" parent="SZKecO72ImMTuySL_LnB-81">
          <mxGeometry y="26" width="160" height="34" as="geometry" />
        </mxCell>
        <mxCell id="SZKecO72ImMTuySL_LnB-202" value="+ isMatch(Employee) : bool" style="text;align=left;verticalAlign=top;spacingLeft=4;spacingRight=4;overflow=hidden;rotatable=0;points=[[0,0.5],[1,0.5]];portConstraint=eastwest;fontStyle=4" vertex="1" parent="SZKecO72ImMTuySL_LnB-81">
          <mxGeometry y="60" width="160" height="34" as="geometry" />
        </mxCell>
        <mxCell id="SZKecO72ImMTuySL_LnB-101" value="ConditionFirstName" style="swimlane;fontStyle=0;align=center;verticalAlign=top;childLayout=stackLayout;horizontal=1;startSize=26;horizontalStack=0;resizeParent=1;resizeLast=0;collapsible=1;marginBottom=0;rounded=0;shadow=0;strokeWidth=1;" vertex="1" parent="SZKecO72ImMTuySL_LnB-131">
          <mxGeometry x="-20" y="350" width="170" height="94" as="geometry">
            <mxRectangle x="130" y="380" width="160" height="26" as="alternateBounds" />
          </mxGeometry>
        </mxCell>
        <mxCell id="SZKecO72ImMTuySL_LnB-102" value="+ ConditionFirstName(string)" style="text;align=left;verticalAlign=top;spacingLeft=4;spacingRight=4;overflow=hidden;rotatable=0;points=[[0,0.5],[1,0.5]];portConstraint=eastwest;fontStyle=4" vertex="1" parent="SZKecO72ImMTuySL_LnB-101">
          <mxGeometry y="26" width="170" height="34" as="geometry" />
        </mxCell>
        <mxCell id="SZKecO72ImMTuySL_LnB-214" value="+ isMatch(Employee) : bool" style="text;align=left;verticalAlign=top;spacingLeft=4;spacingRight=4;overflow=hidden;rotatable=0;points=[[0,0.5],[1,0.5]];portConstraint=eastwest;fontStyle=4" vertex="1" parent="SZKecO72ImMTuySL_LnB-101">
          <mxGeometry y="60" width="170" height="34" as="geometry" />
        </mxCell>
        <mxCell id="SZKecO72ImMTuySL_LnB-103" value="ConditionLastName" style="swimlane;fontStyle=0;align=center;verticalAlign=top;childLayout=stackLayout;horizontal=1;startSize=26;horizontalStack=0;resizeParent=1;resizeLast=0;collapsible=1;marginBottom=0;rounded=0;shadow=0;strokeWidth=1;" vertex="1" parent="SZKecO72ImMTuySL_LnB-131">
          <mxGeometry x="170" y="350" width="170" height="94" as="geometry">
            <mxRectangle x="130" y="380" width="160" height="26" as="alternateBounds" />
          </mxGeometry>
        </mxCell>
        <mxCell id="SZKecO72ImMTuySL_LnB-104" value="+ ConditionLastName(string)" style="text;align=left;verticalAlign=top;spacingLeft=4;spacingRight=4;overflow=hidden;rotatable=0;points=[[0,0.5],[1,0.5]];portConstraint=eastwest;fontStyle=4" vertex="1" parent="SZKecO72ImMTuySL_LnB-103">
          <mxGeometry y="26" width="170" height="34" as="geometry" />
        </mxCell>
        <mxCell id="SZKecO72ImMTuySL_LnB-213" value="+ isMatch(Employee) : bool" style="text;align=left;verticalAlign=top;spacingLeft=4;spacingRight=4;overflow=hidden;rotatable=0;points=[[0,0.5],[1,0.5]];portConstraint=eastwest;fontStyle=4" vertex="1" parent="SZKecO72ImMTuySL_LnB-103">
          <mxGeometry y="60" width="170" height="34" as="geometry" />
        </mxCell>
        <mxCell id="SZKecO72ImMTuySL_LnB-105" value="ConditionName" style="swimlane;fontStyle=0;align=center;verticalAlign=top;childLayout=stackLayout;horizontal=1;startSize=26;horizontalStack=0;resizeParent=1;resizeLast=0;collapsible=1;marginBottom=0;rounded=0;shadow=0;strokeWidth=1;" vertex="1" parent="SZKecO72ImMTuySL_LnB-131">
          <mxGeometry x="80" y="180" width="160" height="94" as="geometry">
            <mxRectangle x="130" y="380" width="160" height="26" as="alternateBounds" />
          </mxGeometry>
        </mxCell>
        <mxCell id="SZKecO72ImMTuySL_LnB-106" value="+ ConditionName(string)" style="text;align=left;verticalAlign=top;spacingLeft=4;spacingRight=4;overflow=hidden;rotatable=0;points=[[0,0.5],[1,0.5]];portConstraint=eastwest;fontStyle=4" vertex="1" parent="SZKecO72ImMTuySL_LnB-105">
          <mxGeometry y="26" width="160" height="34" as="geometry" />
        </mxCell>
        <mxCell id="SZKecO72ImMTuySL_LnB-201" value="+ isMatch(Employee) : bool" style="text;align=left;verticalAlign=top;spacingLeft=4;spacingRight=4;overflow=hidden;rotatable=0;points=[[0,0.5],[1,0.5]];portConstraint=eastwest;fontStyle=4" vertex="1" parent="SZKecO72ImMTuySL_LnB-105">
          <mxGeometry y="60" width="160" height="34" as="geometry" />
        </mxCell>
        <mxCell id="SZKecO72ImMTuySL_LnB-108" value="ConditionBirthday" style="swimlane;fontStyle=0;align=center;verticalAlign=top;childLayout=stackLayout;horizontal=1;startSize=26;horizontalStack=0;resizeParent=1;resizeLast=0;collapsible=1;marginBottom=0;rounded=0;shadow=0;strokeWidth=1;" vertex="1" parent="SZKecO72ImMTuySL_LnB-131">
          <mxGeometry x="1054" y="180" width="160" height="94" as="geometry">
            <mxRectangle x="130" y="380" width="160" height="26" as="alternateBounds" />
          </mxGeometry>
        </mxCell>
        <mxCell id="SZKecO72ImMTuySL_LnB-109" value="+ ConditionBirthday(string)" style="text;align=left;verticalAlign=top;spacingLeft=4;spacingRight=4;overflow=hidden;rotatable=0;points=[[0,0.5],[1,0.5]];portConstraint=eastwest;fontStyle=4" vertex="1" parent="SZKecO72ImMTuySL_LnB-108">
          <mxGeometry y="26" width="160" height="34" as="geometry" />
        </mxCell>
        <mxCell id="SZKecO72ImMTuySL_LnB-203" value="+ isMatch(Employee) : bool" style="text;align=left;verticalAlign=top;spacingLeft=4;spacingRight=4;overflow=hidden;rotatable=0;points=[[0,0.5],[1,0.5]];portConstraint=eastwest;fontStyle=4" vertex="1" parent="SZKecO72ImMTuySL_LnB-108">
          <mxGeometry y="60" width="160" height="34" as="geometry" />
        </mxCell>
        <mxCell id="SZKecO72ImMTuySL_LnB-113" value="ConditionMiddlePhoneNumber" style="swimlane;fontStyle=0;align=center;verticalAlign=top;childLayout=stackLayout;horizontal=1;startSize=26;horizontalStack=0;resizeParent=1;resizeLast=0;collapsible=1;marginBottom=0;rounded=0;shadow=0;strokeWidth=1;" vertex="1" parent="SZKecO72ImMTuySL_LnB-131">
          <mxGeometry x="360" y="350" width="220" height="94" as="geometry">
            <mxRectangle x="130" y="380" width="160" height="26" as="alternateBounds" />
          </mxGeometry>
        </mxCell>
        <mxCell id="SZKecO72ImMTuySL_LnB-212" value="+ ConditionMiddlePhoneNumber(string)" style="text;align=left;verticalAlign=top;spacingLeft=4;spacingRight=4;overflow=hidden;rotatable=0;points=[[0,0.5],[1,0.5]];portConstraint=eastwest;fontStyle=4" vertex="1" parent="SZKecO72ImMTuySL_LnB-113">
          <mxGeometry y="26" width="220" height="34" as="geometry" />
        </mxCell>
        <mxCell id="SZKecO72ImMTuySL_LnB-114" value="+ isMatch(Employee) : bool" style="text;align=left;verticalAlign=top;spacingLeft=4;spacingRight=4;overflow=hidden;rotatable=0;points=[[0,0.5],[1,0.5]];portConstraint=eastwest;fontStyle=4" vertex="1" parent="SZKecO72ImMTuySL_LnB-113">
          <mxGeometry y="60" width="220" height="34" as="geometry" />
        </mxCell>
        <mxCell id="SZKecO72ImMTuySL_LnB-115" value="ConditionLastPhoneNumber" style="swimlane;fontStyle=0;align=center;verticalAlign=top;childLayout=stackLayout;horizontal=1;startSize=26;horizontalStack=0;resizeParent=1;resizeLast=0;collapsible=1;marginBottom=0;rounded=0;shadow=0;strokeWidth=1;" vertex="1" parent="SZKecO72ImMTuySL_LnB-131">
          <mxGeometry x="600" y="350" width="210" height="94" as="geometry">
            <mxRectangle x="130" y="380" width="160" height="26" as="alternateBounds" />
          </mxGeometry>
        </mxCell>
        <mxCell id="SZKecO72ImMTuySL_LnB-116" value="+ ConditionLastPhoneNumber(string)" style="text;align=left;verticalAlign=top;spacingLeft=4;spacingRight=4;overflow=hidden;rotatable=0;points=[[0,0.5],[1,0.5]];portConstraint=eastwest;fontStyle=4" vertex="1" parent="SZKecO72ImMTuySL_LnB-115">
          <mxGeometry y="26" width="210" height="34" as="geometry" />
        </mxCell>
        <mxCell id="SZKecO72ImMTuySL_LnB-210" value="+ isMatch(Employee) : bool" style="text;align=left;verticalAlign=top;spacingLeft=4;spacingRight=4;overflow=hidden;rotatable=0;points=[[0,0.5],[1,0.5]];portConstraint=eastwest;fontStyle=4" vertex="1" parent="SZKecO72ImMTuySL_LnB-115">
          <mxGeometry y="60" width="210" height="34" as="geometry" />
        </mxCell>
        <mxCell id="SZKecO72ImMTuySL_LnB-117" value="ConditionYearBirthday" style="swimlane;fontStyle=0;align=center;verticalAlign=top;childLayout=stackLayout;horizontal=1;startSize=26;horizontalStack=0;resizeParent=1;resizeLast=0;collapsible=1;marginBottom=0;rounded=0;shadow=0;strokeWidth=1;" vertex="1" parent="SZKecO72ImMTuySL_LnB-131">
          <mxGeometry x="850" y="350" width="179" height="94" as="geometry">
            <mxRectangle x="130" y="380" width="160" height="26" as="alternateBounds" />
          </mxGeometry>
        </mxCell>
        <mxCell id="SZKecO72ImMTuySL_LnB-207" value="+ ConditionYearBirthday(string)" style="text;align=left;verticalAlign=top;spacingLeft=4;spacingRight=4;overflow=hidden;rotatable=0;points=[[0,0.5],[1,0.5]];portConstraint=eastwest;fontStyle=4" vertex="1" parent="SZKecO72ImMTuySL_LnB-117">
          <mxGeometry y="26" width="179" height="34" as="geometry" />
        </mxCell>
        <mxCell id="SZKecO72ImMTuySL_LnB-118" value="+ isMatch(Employee) : bool" style="text;align=left;verticalAlign=top;spacingLeft=4;spacingRight=4;overflow=hidden;rotatable=0;points=[[0,0.5],[1,0.5]];portConstraint=eastwest;fontStyle=4" vertex="1" parent="SZKecO72ImMTuySL_LnB-117">
          <mxGeometry y="60" width="179" height="34" as="geometry" />
        </mxCell>
        <mxCell id="SZKecO72ImMTuySL_LnB-119" value="ConditionMonthBirthday" style="swimlane;fontStyle=0;align=center;verticalAlign=top;childLayout=stackLayout;horizontal=1;startSize=26;horizontalStack=0;resizeParent=1;resizeLast=0;collapsible=1;marginBottom=0;rounded=0;shadow=0;strokeWidth=1;" vertex="1" parent="SZKecO72ImMTuySL_LnB-131">
          <mxGeometry x="1040" y="350" width="190" height="94" as="geometry">
            <mxRectangle x="130" y="380" width="160" height="26" as="alternateBounds" />
          </mxGeometry>
        </mxCell>
        <mxCell id="SZKecO72ImMTuySL_LnB-120" value="+ ConditionMonthBirthday(string)" style="text;align=left;verticalAlign=top;spacingLeft=4;spacingRight=4;overflow=hidden;rotatable=0;points=[[0,0.5],[1,0.5]];portConstraint=eastwest;fontStyle=4" vertex="1" parent="SZKecO72ImMTuySL_LnB-119">
          <mxGeometry y="26" width="190" height="34" as="geometry" />
        </mxCell>
        <mxCell id="SZKecO72ImMTuySL_LnB-209" value="+ isMatch(Employee) : bool" style="text;align=left;verticalAlign=top;spacingLeft=4;spacingRight=4;overflow=hidden;rotatable=0;points=[[0,0.5],[1,0.5]];portConstraint=eastwest;fontStyle=4" vertex="1" parent="SZKecO72ImMTuySL_LnB-119">
          <mxGeometry y="60" width="190" height="34" as="geometry" />
        </mxCell>
        <mxCell id="SZKecO72ImMTuySL_LnB-123" value="Extends" style="endArrow=block;endSize=16;endFill=0;html=1;rounded=0;edgeStyle=elbowEdgeStyle;elbow=vertical;" edge="1" parent="SZKecO72ImMTuySL_LnB-131" source="SZKecO72ImMTuySL_LnB-101" target="SZKecO72ImMTuySL_LnB-105">
          <mxGeometry x="-0.8095" width="160" relative="1" as="geometry">
            <mxPoint x="30" y="300" as="sourcePoint" />
            <mxPoint x="435" y="180" as="targetPoint" />
            <mxPoint y="1" as="offset" />
          </mxGeometry>
        </mxCell>
        <mxCell id="SZKecO72ImMTuySL_LnB-124" value="Extends" style="endArrow=block;endSize=16;endFill=0;html=1;rounded=0;edgeStyle=elbowEdgeStyle;elbow=vertical;" edge="1" parent="SZKecO72ImMTuySL_LnB-131" source="SZKecO72ImMTuySL_LnB-103" target="SZKecO72ImMTuySL_LnB-105">
          <mxGeometry x="-0.8095" width="160" relative="1" as="geometry">
            <mxPoint x="50" y="360" as="sourcePoint" />
            <mxPoint x="190" y="250" as="targetPoint" />
            <mxPoint y="1" as="offset" />
          </mxGeometry>
        </mxCell>
        <mxCell id="SZKecO72ImMTuySL_LnB-126" value="Extends" style="endArrow=block;endSize=16;endFill=0;html=1;rounded=0;edgeStyle=elbowEdgeStyle;elbow=vertical;" edge="1" parent="SZKecO72ImMTuySL_LnB-131" source="SZKecO72ImMTuySL_LnB-113" target="SZKecO72ImMTuySL_LnB-79">
          <mxGeometry x="-0.8095" width="160" relative="1" as="geometry">
            <mxPoint x="489.9999999999998" y="350" as="sourcePoint" />
            <mxPoint x="590" y="240" as="targetPoint" />
            <mxPoint y="1" as="offset" />
          </mxGeometry>
        </mxCell>
        <mxCell id="SZKecO72ImMTuySL_LnB-127" value="Extends" style="endArrow=block;endSize=16;endFill=0;html=1;rounded=0;edgeStyle=elbowEdgeStyle;elbow=vertical;" edge="1" parent="SZKecO72ImMTuySL_LnB-131" source="SZKecO72ImMTuySL_LnB-115" target="SZKecO72ImMTuySL_LnB-79">
          <mxGeometry x="-0.8095" width="160" relative="1" as="geometry">
            <mxPoint x="680" y="350" as="sourcePoint" />
            <mxPoint x="770" y="240" as="targetPoint" />
            <mxPoint y="1" as="offset" />
          </mxGeometry>
        </mxCell>
        <mxCell id="SZKecO72ImMTuySL_LnB-128" value="Extends" style="endArrow=block;endSize=16;endFill=0;html=1;rounded=0;edgeStyle=elbowEdgeStyle;elbow=vertical;" edge="1" parent="SZKecO72ImMTuySL_LnB-131" source="SZKecO72ImMTuySL_LnB-117" target="SZKecO72ImMTuySL_LnB-108">
          <mxGeometry x="-0.8095" width="160" relative="1" as="geometry">
            <mxPoint x="900" y="350" as="sourcePoint" />
            <mxPoint x="990" y="240" as="targetPoint" />
            <mxPoint y="1" as="offset" />
          </mxGeometry>
        </mxCell>
        <mxCell id="SZKecO72ImMTuySL_LnB-130" value="Extends" style="endArrow=block;endSize=16;endFill=0;html=1;rounded=0;edgeStyle=elbowEdgeStyle;elbow=vertical;" edge="1" parent="SZKecO72ImMTuySL_LnB-131" source="SZKecO72ImMTuySL_LnB-119" target="SZKecO72ImMTuySL_LnB-108">
          <mxGeometry x="-0.1667" width="160" relative="1" as="geometry">
            <mxPoint x="1080" y="380" as="sourcePoint" />
            <mxPoint x="1080" y="260" as="targetPoint" />
            <mxPoint y="-1" as="offset" />
          </mxGeometry>
        </mxCell>
        <mxCell id="SZKecO72ImMTuySL_LnB-121" value="ConditionDayBirthday" style="swimlane;fontStyle=0;align=center;verticalAlign=top;childLayout=stackLayout;horizontal=1;startSize=26;horizontalStack=0;resizeParent=1;resizeLast=0;collapsible=1;marginBottom=0;rounded=0;shadow=0;strokeWidth=1;" vertex="1" parent="SZKecO72ImMTuySL_LnB-131">
          <mxGeometry x="1240" y="350" width="181" height="94" as="geometry">
            <mxRectangle x="130" y="380" width="160" height="26" as="alternateBounds" />
          </mxGeometry>
        </mxCell>
        <mxCell id="SZKecO72ImMTuySL_LnB-122" value="+ ConditionDayBirthday(string)" style="text;align=left;verticalAlign=top;spacingLeft=4;spacingRight=4;overflow=hidden;rotatable=0;points=[[0,0.5],[1,0.5]];portConstraint=eastwest;fontStyle=4" vertex="1" parent="SZKecO72ImMTuySL_LnB-121">
          <mxGeometry y="26" width="181" height="34" as="geometry" />
        </mxCell>
        <mxCell id="SZKecO72ImMTuySL_LnB-204" value="+ isMatch(Employee) : bool" style="text;align=left;verticalAlign=top;spacingLeft=4;spacingRight=4;overflow=hidden;rotatable=0;points=[[0,0.5],[1,0.5]];portConstraint=eastwest;fontStyle=4" vertex="1" parent="SZKecO72ImMTuySL_LnB-121">
          <mxGeometry y="60" width="181" height="34" as="geometry" />
        </mxCell>
        <mxCell id="SZKecO72ImMTuySL_LnB-129" value="Extends" style="endArrow=block;endSize=16;endFill=0;html=1;rounded=0;edgeStyle=elbowEdgeStyle;elbow=vertical;" edge="1" parent="SZKecO72ImMTuySL_LnB-131" source="SZKecO72ImMTuySL_LnB-121" target="SZKecO72ImMTuySL_LnB-108">
          <mxGeometry x="-0.8095" width="160" relative="1" as="geometry">
            <mxPoint x="909.375" y="360" as="sourcePoint" />
            <mxPoint x="1084" y="250" as="targetPoint" />
            <mxPoint y="1" as="offset" />
          </mxGeometry>
        </mxCell>
        <mxCell id="SZKecO72ImMTuySL_LnB-184" value="Condition" style="swimlane;fontStyle=0;align=center;verticalAlign=top;childLayout=stackLayout;horizontal=1;startSize=26;horizontalStack=0;resizeParent=1;resizeLast=0;collapsible=1;marginBottom=0;rounded=0;shadow=0;strokeWidth=1;" vertex="1" parent="SZKecO72ImMTuySL_LnB-193">
          <mxGeometry x="476.25" width="217.5" height="120" as="geometry">
            <mxRectangle x="130" y="380" width="160" height="26" as="alternateBounds" />
          </mxGeometry>
        </mxCell>
        <mxCell id="SZKecO72ImMTuySL_LnB-185" value="- string compareString" style="text;align=left;verticalAlign=top;spacingLeft=4;spacingRight=4;overflow=hidden;rotatable=0;points=[[0,0.5],[1,0.5]];portConstraint=eastwest;" vertex="1" parent="SZKecO72ImMTuySL_LnB-184">
          <mxGeometry y="26" width="217.5" height="26" as="geometry" />
        </mxCell>
        <mxCell id="SZKecO72ImMTuySL_LnB-188" value="" style="line;html=1;strokeWidth=1;align=left;verticalAlign=middle;spacingTop=-1;spacingLeft=3;spacingRight=3;rotatable=0;labelPosition=right;points=[];portConstraint=eastwest;" vertex="1" parent="SZKecO72ImMTuySL_LnB-184">
          <mxGeometry y="52" width="217.5" height="8" as="geometry" />
        </mxCell>
        <mxCell id="SZKecO72ImMTuySL_LnB-189" value="+ isMatch(Employee) : bool" style="text;align=left;verticalAlign=top;spacingLeft=4;spacingRight=4;overflow=hidden;rotatable=0;points=[[0,0.5],[1,0.5]];portConstraint=eastwest;fontStyle=4" vertex="1" parent="SZKecO72ImMTuySL_LnB-184">
          <mxGeometry y="60" width="217.5" height="30" as="geometry" />
        </mxCell>
        <mxCell id="SZKecO72ImMTuySL_LnB-197" value="+ getCompareString() : string" style="text;align=left;verticalAlign=top;spacingLeft=4;spacingRight=4;overflow=hidden;rotatable=0;points=[[0,0.5],[1,0.5]];portConstraint=eastwest;fontStyle=4" vertex="1" parent="SZKecO72ImMTuySL_LnB-184">
          <mxGeometry y="90" width="217.5" height="30" as="geometry" />
        </mxCell>
        <mxCell id="SZKecO72ImMTuySL_LnB-110" value="Extends" style="endArrow=block;endSize=16;endFill=0;html=1;rounded=0;exitX=0.5;exitY=0;exitDx=0;exitDy=0;edgeStyle=elbowEdgeStyle;elbow=vertical;" edge="1" parent="SZKecO72ImMTuySL_LnB-193" source="SZKecO72ImMTuySL_LnB-108" target="SZKecO72ImMTuySL_LnB-184">
          <mxGeometry x="-0.8058" width="160" relative="1" as="geometry">
            <mxPoint y="1180" as="sourcePoint" />
            <mxPoint x="-195" y="1179" as="targetPoint" />
            <mxPoint y="1" as="offset" />
          </mxGeometry>
        </mxCell>
        <mxCell id="SZKecO72ImMTuySL_LnB-107" value="Extends" style="endArrow=block;endSize=16;endFill=0;html=1;rounded=0;exitX=0.5;exitY=0;exitDx=0;exitDy=0;edgeStyle=elbowEdgeStyle;elbow=vertical;" edge="1" parent="SZKecO72ImMTuySL_LnB-193" source="SZKecO72ImMTuySL_LnB-105" target="SZKecO72ImMTuySL_LnB-184">
          <mxGeometry x="-0.8095" width="160" relative="1" as="geometry">
            <mxPoint x="-650" y="1140" as="sourcePoint" />
            <mxPoint x="-195" y="1179" as="targetPoint" />
            <mxPoint y="1" as="offset" />
          </mxGeometry>
        </mxCell>
        <mxCell id="SZKecO72ImMTuySL_LnB-85" value="Extends" style="endArrow=block;endSize=16;endFill=0;html=1;rounded=0;exitX=0.5;exitY=0;exitDx=0;exitDy=0;edgeStyle=elbowEdgeStyle;elbow=vertical;" edge="1" parent="SZKecO72ImMTuySL_LnB-193" source="SZKecO72ImMTuySL_LnB-81" target="SZKecO72ImMTuySL_LnB-184">
          <mxGeometry x="-0.6875" width="160" relative="1" as="geometry">
            <mxPoint x="-185" y="1180" as="sourcePoint" />
            <mxPoint x="-195" y="1179" as="targetPoint" />
            <mxPoint y="1" as="offset" />
          </mxGeometry>
        </mxCell>
        <mxCell id="SZKecO72ImMTuySL_LnB-84" value="Extends" style="endArrow=block;endSize=16;endFill=0;html=1;rounded=0;exitX=0.5;exitY=0;exitDx=0;exitDy=0;edgeStyle=elbowEdgeStyle;elbow=vertical;" edge="1" parent="SZKecO72ImMTuySL_LnB-193" source="SZKecO72ImMTuySL_LnB-79" target="SZKecO72ImMTuySL_LnB-184">
          <mxGeometry x="-0.1667" width="160" relative="1" as="geometry">
            <mxPoint x="-385" y="1180" as="sourcePoint" />
            <mxPoint x="-195" y="1179" as="targetPoint" />
            <mxPoint y="-1" as="offset" />
          </mxGeometry>
        </mxCell>
        <mxCell id="SZKecO72ImMTuySL_LnB-83" value="Extends" style="endArrow=block;endSize=16;endFill=0;html=1;rounded=0;exitX=0.5;exitY=0;exitDx=0;exitDy=0;edgeStyle=elbowEdgeStyle;elbow=vertical;" edge="1" parent="SZKecO72ImMTuySL_LnB-193" source="SZKecO72ImMTuySL_LnB-77" target="SZKecO72ImMTuySL_LnB-184">
          <mxGeometry x="-0.6878" width="160" relative="1" as="geometry">
            <mxPoint x="-405" y="1140" as="sourcePoint" />
            <mxPoint x="-195" y="1179" as="targetPoint" />
            <mxPoint y="-1" as="offset" />
          </mxGeometry>
        </mxCell>
        <mxCell id="TgzZdIN7OXh--3jAK0nj-0" value="Input" style="html=1;fontFamily=Helvetica;fontSize=11;fontColor=default;" vertex="1" parent="WIyWlLk6GJQsqaUBKTNV-1">
          <mxGeometry x="-970" y="781" width="110" height="50" as="geometry" />
        </mxCell>
        <mxCell id="TgzZdIN7OXh--3jAK0nj-1" value="" style="endArrow=classic;html=1;rounded=0;labelBackgroundColor=default;fontFamily=Helvetica;fontSize=11;fontColor=default;endSize=16;strokeColor=default;shape=connector;elbow=vertical;" edge="1" parent="WIyWlLk6GJQsqaUBKTNV-1" source="TgzZdIN7OXh--3jAK0nj-0" target="SZKecO72ImMTuySL_LnB-33">
          <mxGeometry width="50" height="50" relative="1" as="geometry">
            <mxPoint x="-570" y="680" as="sourcePoint" />
            <mxPoint x="-520" y="630" as="targetPoint" />
          </mxGeometry>
        </mxCell>
        <mxCell id="TgzZdIN7OXh--3jAK0nj-2" value="Output" style="html=1;fontFamily=Helvetica;fontSize=11;fontColor=default;" vertex="1" parent="WIyWlLk6GJQsqaUBKTNV-1">
          <mxGeometry x="-970" y="351" width="110" height="50" as="geometry" />
        </mxCell>
        <mxCell id="TgzZdIN7OXh--3jAK0nj-3" value="" style="endArrow=classic;html=1;rounded=0;labelBackgroundColor=default;fontFamily=Helvetica;fontSize=11;fontColor=default;endSize=16;strokeColor=default;shape=connector;elbow=vertical;" edge="1" parent="WIyWlLk6GJQsqaUBKTNV-1" source="SZKecO72ImMTuySL_LnB-146" target="TgzZdIN7OXh--3jAK0nj-2">
          <mxGeometry width="50" height="50" relative="1" as="geometry">
            <mxPoint x="-690" y="365" as="sourcePoint" />
            <mxPoint x="-560" y="279" as="targetPoint" />
          </mxGeometry>
        </mxCell>
        <mxCell id="TgzZdIN7OXh--3jAK0nj-19" style="edgeStyle=elbowEdgeStyle;shape=connector;rounded=0;orthogonalLoop=1;jettySize=auto;elbow=vertical;html=1;exitX=1;exitY=0.25;exitDx=0;exitDy=0;labelBackgroundColor=default;fontFamily=Helvetica;fontSize=11;fontColor=default;endArrow=block;endFill=0;endSize=16;strokeColor=default;" edge="1" parent="WIyWlLk6GJQsqaUBKTNV-1">
          <mxGeometry relative="1" as="geometry">
            <mxPoint x="-3.75" y="1400" as="sourcePoint" />
            <mxPoint x="-3.75" y="1399.75" as="targetPoint" />
          </mxGeometry>
        </mxCell>
        <mxCell id="TgzZdIN7OXh--3jAK0nj-28" value="" style="endArrow=classic;html=1;rounded=0;labelBackgroundColor=default;fontFamily=Helvetica;fontSize=11;fontColor=default;strokeColor=default;edgeStyle=elbowEdgeStyle;elbow=vertical;" edge="1" parent="WIyWlLk6GJQsqaUBKTNV-1" source="SZKecO72ImMTuySL_LnB-137" target="SZKecO72ImMTuySL_LnB-184">
          <mxGeometry width="50" height="50" relative="1" as="geometry">
            <mxPoint x="-390" y="870" as="sourcePoint" />
            <mxPoint x="-340" y="820" as="targetPoint" />
          </mxGeometry>
        </mxCell>
        <mxCell id="TgzZdIN7OXh--3jAK0nj-43" value="AddCommand" style="swimlane;fontStyle=0;align=center;verticalAlign=top;childLayout=stackLayout;horizontal=1;startSize=26;horizontalStack=0;resizeParent=1;resizeLast=0;collapsible=1;marginBottom=0;rounded=0;shadow=0;strokeWidth=1;" vertex="1" parent="WIyWlLk6GJQsqaUBKTNV-1">
          <mxGeometry x="-203.75" y="1500" width="220" height="104" as="geometry">
            <mxRectangle x="130" y="380" width="160" height="26" as="alternateBounds" />
          </mxGeometry>
        </mxCell>
        <mxCell id="TgzZdIN7OXh--3jAK0nj-46" value="+ AddCommand(Condition)" style="text;align=left;verticalAlign=top;spacingLeft=4;spacingRight=4;overflow=hidden;rotatable=0;points=[[0,0.5],[1,0.5]];portConstraint=eastwest;fontStyle=4" vertex="1" parent="TgzZdIN7OXh--3jAK0nj-43">
          <mxGeometry y="26" width="220" height="26" as="geometry" />
        </mxCell>
        <mxCell id="SDovXiUHIpcLB9_Pdx8c-13" value="+ runCommand() : void" style="text;align=left;verticalAlign=top;spacingLeft=4;spacingRight=4;overflow=hidden;rotatable=0;points=[[0,0.5],[1,0.5]];portConstraint=eastwest;fontStyle=4" vertex="1" parent="TgzZdIN7OXh--3jAK0nj-43">
          <mxGeometry y="52" width="220" height="26" as="geometry" />
        </mxCell>
        <mxCell id="TgzZdIN7OXh--3jAK0nj-73" value="+ checkValid() : bool" style="text;align=left;verticalAlign=top;spacingLeft=4;spacingRight=4;overflow=hidden;rotatable=0;points=[[0,0.5],[1,0.5]];portConstraint=eastwest;fontStyle=4" vertex="1" parent="TgzZdIN7OXh--3jAK0nj-43">
          <mxGeometry y="78" width="220" height="26" as="geometry" />
        </mxCell>
        <mxCell id="TgzZdIN7OXh--3jAK0nj-50" value="DelCommand" style="swimlane;fontStyle=0;align=center;verticalAlign=top;childLayout=stackLayout;horizontal=1;startSize=26;horizontalStack=0;resizeParent=1;resizeLast=0;collapsible=1;marginBottom=0;rounded=0;shadow=0;strokeWidth=1;" vertex="1" parent="WIyWlLk6GJQsqaUBKTNV-1">
          <mxGeometry x="-203.75" y="1388" width="220" height="104" as="geometry">
            <mxRectangle x="130" y="380" width="160" height="26" as="alternateBounds" />
          </mxGeometry>
        </mxCell>
        <mxCell id="TgzZdIN7OXh--3jAK0nj-51" value="+ DelCommand(Condition)" style="text;align=left;verticalAlign=top;spacingLeft=4;spacingRight=4;overflow=hidden;rotatable=0;points=[[0,0.5],[1,0.5]];portConstraint=eastwest;fontStyle=4" vertex="1" parent="TgzZdIN7OXh--3jAK0nj-50">
          <mxGeometry y="26" width="220" height="26" as="geometry" />
        </mxCell>
        <mxCell id="SDovXiUHIpcLB9_Pdx8c-14" value="+ runCommand() : vector&lt;Employee&gt;" style="text;align=left;verticalAlign=top;spacingLeft=4;spacingRight=4;overflow=hidden;rotatable=0;points=[[0,0.5],[1,0.5]];portConstraint=eastwest;fontStyle=4" vertex="1" parent="TgzZdIN7OXh--3jAK0nj-50">
          <mxGeometry y="52" width="220" height="26" as="geometry" />
        </mxCell>
        <mxCell id="TgzZdIN7OXh--3jAK0nj-74" value="+ checkValid() : bool" style="text;align=left;verticalAlign=top;spacingLeft=4;spacingRight=4;overflow=hidden;rotatable=0;points=[[0,0.5],[1,0.5]];portConstraint=eastwest;fontStyle=4" vertex="1" parent="TgzZdIN7OXh--3jAK0nj-50">
          <mxGeometry y="78" width="220" height="26" as="geometry" />
        </mxCell>
        <mxCell id="TgzZdIN7OXh--3jAK0nj-54" value="ModCommand" style="swimlane;fontStyle=0;align=center;verticalAlign=top;childLayout=stackLayout;horizontal=1;startSize=26;horizontalStack=0;resizeParent=1;resizeLast=0;collapsible=1;marginBottom=0;rounded=0;shadow=0;strokeWidth=1;" vertex="1" parent="WIyWlLk6GJQsqaUBKTNV-1">
          <mxGeometry x="-203.75" y="1160" width="220" height="104" as="geometry">
            <mxRectangle x="130" y="380" width="160" height="26" as="alternateBounds" />
          </mxGeometry>
        </mxCell>
        <mxCell id="TgzZdIN7OXh--3jAK0nj-55" value="+ ModCommand(Condition)" style="text;align=left;verticalAlign=top;spacingLeft=4;spacingRight=4;overflow=hidden;rotatable=0;points=[[0,0.5],[1,0.5]];portConstraint=eastwest;fontStyle=4" vertex="1" parent="TgzZdIN7OXh--3jAK0nj-54">
          <mxGeometry y="26" width="220" height="26" as="geometry" />
        </mxCell>
        <mxCell id="SDovXiUHIpcLB9_Pdx8c-18" value="+ runCommand() : vector&lt;Employee&gt;" style="text;align=left;verticalAlign=top;spacingLeft=4;spacingRight=4;overflow=hidden;rotatable=0;points=[[0,0.5],[1,0.5]];portConstraint=eastwest;fontStyle=4" vertex="1" parent="TgzZdIN7OXh--3jAK0nj-54">
          <mxGeometry y="52" width="220" height="26" as="geometry" />
        </mxCell>
        <mxCell id="TgzZdIN7OXh--3jAK0nj-76" value="+ checkValid() : bool" style="text;align=left;verticalAlign=top;spacingLeft=4;spacingRight=4;overflow=hidden;rotatable=0;points=[[0,0.5],[1,0.5]];portConstraint=eastwest;fontStyle=4" vertex="1" parent="TgzZdIN7OXh--3jAK0nj-54">
          <mxGeometry y="78" width="220" height="26" as="geometry" />
        </mxCell>
        <mxCell id="TgzZdIN7OXh--3jAK0nj-52" value="SchCommand" style="swimlane;fontStyle=0;align=center;verticalAlign=top;childLayout=stackLayout;horizontal=1;startSize=26;horizontalStack=0;resizeParent=1;resizeLast=0;collapsible=1;marginBottom=0;rounded=0;shadow=0;strokeWidth=1;" vertex="1" parent="WIyWlLk6GJQsqaUBKTNV-1">
          <mxGeometry x="-203.75" y="1271" width="220" height="104" as="geometry">
            <mxRectangle x="130" y="380" width="160" height="26" as="alternateBounds" />
          </mxGeometry>
        </mxCell>
        <mxCell id="TgzZdIN7OXh--3jAK0nj-53" value="+ SchCommand(Condition&#xa;)" style="text;align=left;verticalAlign=top;spacingLeft=4;spacingRight=4;overflow=hidden;rotatable=0;points=[[0,0.5],[1,0.5]];portConstraint=eastwest;fontStyle=4" vertex="1" parent="TgzZdIN7OXh--3jAK0nj-52">
          <mxGeometry y="26" width="220" height="26" as="geometry" />
        </mxCell>
        <mxCell id="SDovXiUHIpcLB9_Pdx8c-17" value="+ runCommand() : vector&lt;Employee&gt;" style="text;align=left;verticalAlign=top;spacingLeft=4;spacingRight=4;overflow=hidden;rotatable=0;points=[[0,0.5],[1,0.5]];portConstraint=eastwest;fontStyle=4" vertex="1" parent="TgzZdIN7OXh--3jAK0nj-52">
          <mxGeometry y="52" width="220" height="26" as="geometry" />
        </mxCell>
        <mxCell id="TgzZdIN7OXh--3jAK0nj-75" value="+ checkValid() : bool" style="text;align=left;verticalAlign=top;spacingLeft=4;spacingRight=4;overflow=hidden;rotatable=0;points=[[0,0.5],[1,0.5]];portConstraint=eastwest;fontStyle=4" vertex="1" parent="TgzZdIN7OXh--3jAK0nj-52">
          <mxGeometry y="78" width="220" height="26" as="geometry" />
        </mxCell>
        <mxCell id="TgzZdIN7OXh--3jAK0nj-57" value="" style="edgeStyle=elbowEdgeStyle;shape=connector;rounded=0;orthogonalLoop=1;jettySize=auto;html=1;labelBackgroundColor=default;fontFamily=Helvetica;fontSize=11;fontColor=default;endArrow=block;endFill=0;endSize=16;strokeColor=default;startArrow=none;" edge="1" parent="WIyWlLk6GJQsqaUBKTNV-1" source="TgzZdIN7OXh--3jAK0nj-54" target="SZKecO72ImMTuySL_LnB-137">
          <mxGeometry relative="1" as="geometry">
            <mxPoint x="-193.75" y="1311" as="sourcePoint" />
            <mxPoint x="-273.75" y="1389" as="targetPoint" />
          </mxGeometry>
        </mxCell>
        <mxCell id="SDovXiUHIpcLB9_Pdx8c-19" value="" style="endArrow=classic;html=1;rounded=0;labelBackgroundColor=default;fontFamily=Helvetica;fontSize=11;fontColor=default;endSize=16;strokeColor=default;shape=connector;elbow=vertical;" edge="1" parent="WIyWlLk6GJQsqaUBKTNV-1" source="SZKecO72ImMTuySL_LnB-33" target="SZKecO72ImMTuySL_LnB-137">
          <mxGeometry width="50" height="50" relative="1" as="geometry">
            <mxPoint x="-850" y="815.9999999999998" as="sourcePoint" />
            <mxPoint x="-760" y="815.9999999999998" as="targetPoint" />
          </mxGeometry>
        </mxCell>
      </root>
    </mxGraphModel>
  </diagram>
  <diagram id="WJQfX4LWJD3BsOyZJtts" name="Page-2">
    <mxGraphModel dx="1610" dy="784" grid="1" gridSize="10" guides="1" tooltips="1" connect="1" arrows="1" fold="1" page="1" pageScale="1" pageWidth="827" pageHeight="1169" math="0" shadow="0">
      <root>
        <mxCell id="0" />
        <mxCell id="1" parent="0" />
        <mxCell id="mrsKuUEuQZDFfCK35eMi-1" value="Employee" style="swimlane;fontStyle=0;align=center;verticalAlign=top;childLayout=stackLayout;horizontal=1;startSize=26;horizontalStack=0;resizeParent=1;resizeLast=0;collapsible=1;marginBottom=0;rounded=0;shadow=0;strokeWidth=1;" vertex="1" parent="1">
          <mxGeometry x="300" y="220" width="370" height="560" as="geometry">
            <mxRectangle x="130" y="380" width="160" height="26" as="alternateBounds" />
          </mxGeometry>
        </mxCell>
        <mxCell id="mrsKuUEuQZDFfCK35eMi-2" value="- string employeeNum&#xa;" style="text;align=left;verticalAlign=top;spacingLeft=4;spacingRight=4;overflow=hidden;rotatable=0;points=[[0,0.5],[1,0.5]];portConstraint=eastwest;" vertex="1" parent="mrsKuUEuQZDFfCK35eMi-1">
          <mxGeometry y="26" width="370" height="26" as="geometry" />
        </mxCell>
        <mxCell id="mrsKuUEuQZDFfCK35eMi-3" value="- string name" style="text;align=left;verticalAlign=top;spacingLeft=4;spacingRight=4;overflow=hidden;rotatable=0;points=[[0,0.5],[1,0.5]];portConstraint=eastwest;rounded=0;shadow=0;html=0;" vertex="1" parent="mrsKuUEuQZDFfCK35eMi-1">
          <mxGeometry y="52" width="370" height="28" as="geometry" />
        </mxCell>
        <mxCell id="mrsKuUEuQZDFfCK35eMi-4" value="- string cl" style="text;align=left;verticalAlign=top;spacingLeft=4;spacingRight=4;overflow=hidden;rotatable=0;points=[[0,0.5],[1,0.5]];portConstraint=eastwest;rounded=0;shadow=0;html=0;" vertex="1" parent="mrsKuUEuQZDFfCK35eMi-1">
          <mxGeometry y="80" width="370" height="28" as="geometry" />
        </mxCell>
        <mxCell id="mrsKuUEuQZDFfCK35eMi-5" value="- string phoneNum" style="text;align=left;verticalAlign=top;spacingLeft=4;spacingRight=4;overflow=hidden;rotatable=0;points=[[0,0.5],[1,0.5]];portConstraint=eastwest;rounded=0;shadow=0;html=0;" vertex="1" parent="mrsKuUEuQZDFfCK35eMi-1">
          <mxGeometry y="108" width="370" height="28" as="geometry" />
        </mxCell>
        <mxCell id="mrsKuUEuQZDFfCK35eMi-6" value="- string birthday" style="text;align=left;verticalAlign=top;spacingLeft=4;spacingRight=4;overflow=hidden;rotatable=0;points=[[0,0.5],[1,0.5]];portConstraint=eastwest;rounded=0;shadow=0;html=0;" vertex="1" parent="mrsKuUEuQZDFfCK35eMi-1">
          <mxGeometry y="136" width="370" height="28" as="geometry" />
        </mxCell>
        <mxCell id="mrsKuUEuQZDFfCK35eMi-7" value="- string certi" style="text;align=left;verticalAlign=top;spacingLeft=4;spacingRight=4;overflow=hidden;rotatable=0;points=[[0,0.5],[1,0.5]];portConstraint=eastwest;rounded=0;shadow=0;html=0;" vertex="1" parent="mrsKuUEuQZDFfCK35eMi-1">
          <mxGeometry y="164" width="370" height="28" as="geometry" />
        </mxCell>
        <mxCell id="mrsKuUEuQZDFfCK35eMi-8" value="" style="line;html=1;strokeWidth=1;align=left;verticalAlign=middle;spacingTop=-1;spacingLeft=3;spacingRight=3;rotatable=0;labelPosition=right;points=[];portConstraint=eastwest;" vertex="1" parent="mrsKuUEuQZDFfCK35eMi-1">
          <mxGeometry y="192" width="370" height="8" as="geometry" />
        </mxCell>
        <mxCell id="mrsKuUEuQZDFfCK35eMi-9" value="+ Employee(employeeNum, name, cl, phoneNum, birthday, certi)" style="text;align=left;verticalAlign=top;spacingLeft=4;spacingRight=4;overflow=hidden;rotatable=0;points=[[0,0.5],[1,0.5]];portConstraint=eastwest;fontStyle=4" vertex="1" parent="mrsKuUEuQZDFfCK35eMi-1">
          <mxGeometry y="200" width="370" height="30" as="geometry" />
        </mxCell>
        <mxCell id="mrsKuUEuQZDFfCK35eMi-10" value="+ getEmployeeNum() : string" style="text;align=left;verticalAlign=top;spacingLeft=4;spacingRight=4;overflow=hidden;rotatable=0;points=[[0,0.5],[1,0.5]];portConstraint=eastwest;fontStyle=4" vertex="1" parent="mrsKuUEuQZDFfCK35eMi-1">
          <mxGeometry y="230" width="370" height="30" as="geometry" />
        </mxCell>
        <mxCell id="mrsKuUEuQZDFfCK35eMi-11" value="+ getName() : string" style="text;align=left;verticalAlign=top;spacingLeft=4;spacingRight=4;overflow=hidden;rotatable=0;points=[[0,0.5],[1,0.5]];portConstraint=eastwest;fontStyle=4" vertex="1" parent="mrsKuUEuQZDFfCK35eMi-1">
          <mxGeometry y="260" width="370" height="30" as="geometry" />
        </mxCell>
        <mxCell id="mrsKuUEuQZDFfCK35eMi-12" value="+ setName(string name) : void" style="text;align=left;verticalAlign=top;spacingLeft=4;spacingRight=4;overflow=hidden;rotatable=0;points=[[0,0.5],[1,0.5]];portConstraint=eastwest;fontStyle=4" vertex="1" parent="mrsKuUEuQZDFfCK35eMi-1">
          <mxGeometry y="290" width="370" height="30" as="geometry" />
        </mxCell>
        <mxCell id="mrsKuUEuQZDFfCK35eMi-13" value="+ getCL() : string" style="text;align=left;verticalAlign=top;spacingLeft=4;spacingRight=4;overflow=hidden;rotatable=0;points=[[0,0.5],[1,0.5]];portConstraint=eastwest;fontStyle=4" vertex="1" parent="mrsKuUEuQZDFfCK35eMi-1">
          <mxGeometry y="320" width="370" height="30" as="geometry" />
        </mxCell>
        <mxCell id="mrsKuUEuQZDFfCK35eMi-14" value="+ setCL(string cl) : void" style="text;align=left;verticalAlign=top;spacingLeft=4;spacingRight=4;overflow=hidden;rotatable=0;points=[[0,0.5],[1,0.5]];portConstraint=eastwest;fontStyle=4" vertex="1" parent="mrsKuUEuQZDFfCK35eMi-1">
          <mxGeometry y="350" width="370" height="30" as="geometry" />
        </mxCell>
        <mxCell id="mrsKuUEuQZDFfCK35eMi-15" value="+ getPhoneNum() : string" style="text;align=left;verticalAlign=top;spacingLeft=4;spacingRight=4;overflow=hidden;rotatable=0;points=[[0,0.5],[1,0.5]];portConstraint=eastwest;fontStyle=4" vertex="1" parent="mrsKuUEuQZDFfCK35eMi-1">
          <mxGeometry y="380" width="370" height="30" as="geometry" />
        </mxCell>
        <mxCell id="mrsKuUEuQZDFfCK35eMi-16" value="+ setPhoneNum(string phoneNum) : void" style="text;align=left;verticalAlign=top;spacingLeft=4;spacingRight=4;overflow=hidden;rotatable=0;points=[[0,0.5],[1,0.5]];portConstraint=eastwest;fontStyle=4" vertex="1" parent="mrsKuUEuQZDFfCK35eMi-1">
          <mxGeometry y="410" width="370" height="30" as="geometry" />
        </mxCell>
        <mxCell id="mrsKuUEuQZDFfCK35eMi-17" value="+ getBirthday() : string" style="text;align=left;verticalAlign=top;spacingLeft=4;spacingRight=4;overflow=hidden;rotatable=0;points=[[0,0.5],[1,0.5]];portConstraint=eastwest;fontStyle=4" vertex="1" parent="mrsKuUEuQZDFfCK35eMi-1">
          <mxGeometry y="440" width="370" height="30" as="geometry" />
        </mxCell>
        <mxCell id="mrsKuUEuQZDFfCK35eMi-18" value="+ setBirthday(string birthday) : void" style="text;align=left;verticalAlign=top;spacingLeft=4;spacingRight=4;overflow=hidden;rotatable=0;points=[[0,0.5],[1,0.5]];portConstraint=eastwest;fontStyle=4" vertex="1" parent="mrsKuUEuQZDFfCK35eMi-1">
          <mxGeometry y="470" width="370" height="30" as="geometry" />
        </mxCell>
        <mxCell id="mrsKuUEuQZDFfCK35eMi-19" value="+ getCerti() : string" style="text;align=left;verticalAlign=top;spacingLeft=4;spacingRight=4;overflow=hidden;rotatable=0;points=[[0,0.5],[1,0.5]];portConstraint=eastwest;fontStyle=4" vertex="1" parent="mrsKuUEuQZDFfCK35eMi-1">
          <mxGeometry y="500" width="370" height="30" as="geometry" />
        </mxCell>
        <mxCell id="mrsKuUEuQZDFfCK35eMi-20" value="+ setCerti(string certi) : void" style="text;align=left;verticalAlign=top;spacingLeft=4;spacingRight=4;overflow=hidden;rotatable=0;points=[[0,0.5],[1,0.5]];portConstraint=eastwest;fontStyle=4" vertex="1" parent="mrsKuUEuQZDFfCK35eMi-1">
          <mxGeometry y="530" width="370" height="30" as="geometry" />
        </mxCell>
        <mxCell id="mrsKuUEuQZDFfCK35eMi-21" value="EmployeeManagement" style="swimlane;fontStyle=0;align=center;verticalAlign=top;childLayout=stackLayout;horizontal=1;startSize=26;horizontalStack=0;resizeParent=1;resizeLast=0;collapsible=1;marginBottom=0;rounded=0;shadow=0;strokeWidth=1;" vertex="1" parent="1">
          <mxGeometry x="210" y="840" width="550" height="210" as="geometry">
            <mxRectangle x="130" y="380" width="160" height="26" as="alternateBounds" />
          </mxGeometry>
        </mxCell>
        <mxCell id="mrsKuUEuQZDFfCK35eMi-22" value="- vector&lt;Employee&gt; employList" style="text;align=left;verticalAlign=top;spacingLeft=4;spacingRight=4;overflow=hidden;rotatable=0;points=[[0,0.5],[1,0.5]];portConstraint=eastwest;" vertex="1" parent="mrsKuUEuQZDFfCK35eMi-21">
          <mxGeometry y="26" width="550" height="26" as="geometry" />
        </mxCell>
        <mxCell id="mrsKuUEuQZDFfCK35eMi-23" value="" style="line;html=1;strokeWidth=1;align=left;verticalAlign=middle;spacingTop=-1;spacingLeft=3;spacingRight=3;rotatable=0;labelPosition=right;points=[];portConstraint=eastwest;" vertex="1" parent="mrsKuUEuQZDFfCK35eMi-21">
          <mxGeometry y="52" width="550" height="8" as="geometry" />
        </mxCell>
        <mxCell id="mrsKuUEuQZDFfCK35eMi-24" value="+ EmployeeManagement()" style="text;align=left;verticalAlign=top;spacingLeft=4;spacingRight=4;overflow=hidden;rotatable=0;points=[[0,0.5],[1,0.5]];portConstraint=eastwest;fontStyle=4" vertex="1" parent="mrsKuUEuQZDFfCK35eMi-21">
          <mxGeometry y="60" width="550" height="30" as="geometry" />
        </mxCell>
        <mxCell id="mrsKuUEuQZDFfCK35eMi-25" value="+ addEmployee(employeeNum, name, cl, phoneNum, birthday, certi) : vector&lt;Employee&gt; " style="text;align=left;verticalAlign=top;spacingLeft=4;spacingRight=4;overflow=hidden;rotatable=0;points=[[0,0.5],[1,0.5]];portConstraint=eastwest;fontStyle=4" vertex="1" parent="mrsKuUEuQZDFfCK35eMi-21">
          <mxGeometry y="90" width="550" height="30" as="geometry" />
        </mxCell>
        <mxCell id="mrsKuUEuQZDFfCK35eMi-26" value="+ deleteEmployee(Condition) : vector&lt;Employee&gt;" style="text;align=left;verticalAlign=top;spacingLeft=4;spacingRight=4;overflow=hidden;rotatable=0;points=[[0,0.5],[1,0.5]];portConstraint=eastwest;fontStyle=4" vertex="1" parent="mrsKuUEuQZDFfCK35eMi-21">
          <mxGeometry y="120" width="550" height="30" as="geometry" />
        </mxCell>
        <mxCell id="mrsKuUEuQZDFfCK35eMi-27" value="+ serachEmployee(Condition) : vector&lt;Employee&gt;" style="text;align=left;verticalAlign=top;spacingLeft=4;spacingRight=4;overflow=hidden;rotatable=0;points=[[0,0.5],[1,0.5]];portConstraint=eastwest;fontStyle=4" vertex="1" parent="mrsKuUEuQZDFfCK35eMi-21">
          <mxGeometry y="150" width="550" height="30" as="geometry" />
        </mxCell>
        <mxCell id="mrsKuUEuQZDFfCK35eMi-28" value="+ modifyEmployee(Condition c, string column, string modData) : vector&lt;Employee&gt;" style="text;align=left;verticalAlign=top;spacingLeft=4;spacingRight=4;overflow=hidden;rotatable=0;points=[[0,0.5],[1,0.5]];portConstraint=eastwest;fontStyle=4" vertex="1" parent="mrsKuUEuQZDFfCK35eMi-21">
          <mxGeometry y="180" width="550" height="30" as="geometry" />
        </mxCell>
        <mxCell id="mrsKuUEuQZDFfCK35eMi-29" value="InputInterpreter" style="swimlane;fontStyle=0;align=center;verticalAlign=top;childLayout=stackLayout;horizontal=1;startSize=26;horizontalStack=0;resizeParent=1;resizeLast=0;collapsible=1;marginBottom=0;rounded=0;shadow=0;strokeWidth=1;" vertex="1" parent="1">
          <mxGeometry x="-700" y="650" width="370" height="232" as="geometry">
            <mxRectangle x="130" y="380" width="160" height="26" as="alternateBounds" />
          </mxGeometry>
        </mxCell>
        <mxCell id="mrsKuUEuQZDFfCK35eMi-30" value="- string command" style="text;align=left;verticalAlign=top;spacingLeft=4;spacingRight=4;overflow=hidden;rotatable=0;points=[[0,0.5],[1,0.5]];portConstraint=eastwest;" vertex="1" parent="mrsKuUEuQZDFfCK35eMi-29">
          <mxGeometry y="26" width="370" height="26" as="geometry" />
        </mxCell>
        <mxCell id="mrsKuUEuQZDFfCK35eMi-31" value="- char option1" style="text;align=left;verticalAlign=top;spacingLeft=4;spacingRight=4;overflow=hidden;rotatable=0;points=[[0,0.5],[1,0.5]];portConstraint=eastwest;" vertex="1" parent="mrsKuUEuQZDFfCK35eMi-29">
          <mxGeometry y="52" width="370" height="26" as="geometry" />
        </mxCell>
        <mxCell id="mrsKuUEuQZDFfCK35eMi-32" value="- Condition option2" style="text;align=left;verticalAlign=top;spacingLeft=4;spacingRight=4;overflow=hidden;rotatable=0;points=[[0,0.5],[1,0.5]];portConstraint=eastwest;" vertex="1" parent="mrsKuUEuQZDFfCK35eMi-29">
          <mxGeometry y="78" width="370" height="26" as="geometry" />
        </mxCell>
        <mxCell id="mrsKuUEuQZDFfCK35eMi-33" value="" style="line;html=1;strokeWidth=1;align=left;verticalAlign=middle;spacingTop=-1;spacingLeft=3;spacingRight=3;rotatable=0;labelPosition=right;points=[];portConstraint=eastwest;" vertex="1" parent="mrsKuUEuQZDFfCK35eMi-29">
          <mxGeometry y="104" width="370" height="8" as="geometry" />
        </mxCell>
        <mxCell id="mrsKuUEuQZDFfCK35eMi-34" value="+ add() : void" style="text;align=left;verticalAlign=top;spacingLeft=4;spacingRight=4;overflow=hidden;rotatable=0;points=[[0,0.5],[1,0.5]];portConstraint=eastwest;fontStyle=4" vertex="1" parent="mrsKuUEuQZDFfCK35eMi-29">
          <mxGeometry y="112" width="370" height="30" as="geometry" />
        </mxCell>
        <mxCell id="mrsKuUEuQZDFfCK35eMi-35" value="+ delete() : void" style="text;align=left;verticalAlign=top;spacingLeft=4;spacingRight=4;overflow=hidden;rotatable=0;points=[[0,0.5],[1,0.5]];portConstraint=eastwest;fontStyle=4" vertex="1" parent="mrsKuUEuQZDFfCK35eMi-29">
          <mxGeometry y="142" width="370" height="30" as="geometry" />
        </mxCell>
        <mxCell id="mrsKuUEuQZDFfCK35eMi-36" value="+ search() : void" style="text;align=left;verticalAlign=top;spacingLeft=4;spacingRight=4;overflow=hidden;rotatable=0;points=[[0,0.5],[1,0.5]];portConstraint=eastwest;fontStyle=4" vertex="1" parent="mrsKuUEuQZDFfCK35eMi-29">
          <mxGeometry y="172" width="370" height="30" as="geometry" />
        </mxCell>
        <mxCell id="mrsKuUEuQZDFfCK35eMi-37" value="+ modify() : void" style="text;align=left;verticalAlign=top;spacingLeft=4;spacingRight=4;overflow=hidden;rotatable=0;points=[[0,0.5],[1,0.5]];portConstraint=eastwest;fontStyle=4" vertex="1" parent="mrsKuUEuQZDFfCK35eMi-29">
          <mxGeometry y="202" width="370" height="30" as="geometry" />
        </mxCell>
        <mxCell id="mrsKuUEuQZDFfCK35eMi-38" value="" style="endArrow=classic;html=1;rounded=0;exitX=0.5;exitY=0;exitDx=0;exitDy=0;" edge="1" parent="1" source="mrsKuUEuQZDFfCK35eMi-21" target="mrsKuUEuQZDFfCK35eMi-1">
          <mxGeometry width="50" height="50" relative="1" as="geometry">
            <mxPoint x="320" y="418" as="sourcePoint" />
            <mxPoint x="200.96000000000004" y="464.0400000000002" as="targetPoint" />
          </mxGeometry>
        </mxCell>
        <mxCell id="mrsKuUEuQZDFfCK35eMi-39" value="" style="endArrow=block;endSize=16;endFill=0;html=1;rounded=0;elbow=vertical;edgeStyle=elbowEdgeStyle;" edge="1" parent="1" source="mrsKuUEuQZDFfCK35eMi-107" target="mrsKuUEuQZDFfCK35eMi-40">
          <mxGeometry relative="1" as="geometry" />
        </mxCell>
        <mxCell id="mrsKuUEuQZDFfCK35eMi-40" value="Command" style="swimlane;fontStyle=0;align=center;verticalAlign=top;childLayout=stackLayout;horizontal=1;startSize=26;horizontalStack=0;resizeParent=1;resizeLast=0;collapsible=1;marginBottom=0;rounded=0;shadow=0;strokeWidth=1;" vertex="1" parent="1">
          <mxGeometry x="-270" y="450" width="200" height="80" as="geometry">
            <mxRectangle x="130" y="380" width="160" height="26" as="alternateBounds" />
          </mxGeometry>
        </mxCell>
        <mxCell id="mrsKuUEuQZDFfCK35eMi-41" value="- vector&lt;Employee&gt; returnList" style="text;align=left;verticalAlign=top;spacingLeft=4;spacingRight=4;overflow=hidden;rotatable=0;points=[[0,0.5],[1,0.5]];portConstraint=eastwest;" vertex="1" parent="mrsKuUEuQZDFfCK35eMi-40">
          <mxGeometry y="26" width="200" height="26" as="geometry" />
        </mxCell>
        <mxCell id="mrsKuUEuQZDFfCK35eMi-42" value="" style="line;html=1;strokeWidth=1;align=left;verticalAlign=middle;spacingTop=-1;spacingLeft=3;spacingRight=3;rotatable=0;labelPosition=right;points=[];portConstraint=eastwest;" vertex="1" parent="mrsKuUEuQZDFfCK35eMi-40">
          <mxGeometry y="52" width="200" height="8" as="geometry" />
        </mxCell>
        <mxCell id="mrsKuUEuQZDFfCK35eMi-43" value="OutputBuilder" style="swimlane;fontStyle=0;align=center;verticalAlign=top;childLayout=stackLayout;horizontal=1;startSize=26;horizontalStack=0;resizeParent=1;resizeLast=0;collapsible=1;marginBottom=0;rounded=0;shadow=0;strokeWidth=1;" vertex="1" parent="1">
          <mxGeometry x="-690" y="260" width="370" height="232" as="geometry">
            <mxRectangle x="130" y="380" width="160" height="26" as="alternateBounds" />
          </mxGeometry>
        </mxCell>
        <mxCell id="mrsKuUEuQZDFfCK35eMi-44" value="- string command" style="text;align=left;verticalAlign=top;spacingLeft=4;spacingRight=4;overflow=hidden;rotatable=0;points=[[0,0.5],[1,0.5]];portConstraint=eastwest;" vertex="1" parent="mrsKuUEuQZDFfCK35eMi-43">
          <mxGeometry y="26" width="370" height="26" as="geometry" />
        </mxCell>
        <mxCell id="mrsKuUEuQZDFfCK35eMi-45" value="- char option1" style="text;align=left;verticalAlign=top;spacingLeft=4;spacingRight=4;overflow=hidden;rotatable=0;points=[[0,0.5],[1,0.5]];portConstraint=eastwest;" vertex="1" parent="mrsKuUEuQZDFfCK35eMi-43">
          <mxGeometry y="52" width="370" height="26" as="geometry" />
        </mxCell>
        <mxCell id="mrsKuUEuQZDFfCK35eMi-46" value="- Condition option2" style="text;align=left;verticalAlign=top;spacingLeft=4;spacingRight=4;overflow=hidden;rotatable=0;points=[[0,0.5],[1,0.5]];portConstraint=eastwest;" vertex="1" parent="mrsKuUEuQZDFfCK35eMi-43">
          <mxGeometry y="78" width="370" height="26" as="geometry" />
        </mxCell>
        <mxCell id="mrsKuUEuQZDFfCK35eMi-47" value="" style="line;html=1;strokeWidth=1;align=left;verticalAlign=middle;spacingTop=-1;spacingLeft=3;spacingRight=3;rotatable=0;labelPosition=right;points=[];portConstraint=eastwest;" vertex="1" parent="mrsKuUEuQZDFfCK35eMi-43">
          <mxGeometry y="104" width="370" height="8" as="geometry" />
        </mxCell>
        <mxCell id="mrsKuUEuQZDFfCK35eMi-48" value="+ add() : void" style="text;align=left;verticalAlign=top;spacingLeft=4;spacingRight=4;overflow=hidden;rotatable=0;points=[[0,0.5],[1,0.5]];portConstraint=eastwest;fontStyle=4" vertex="1" parent="mrsKuUEuQZDFfCK35eMi-43">
          <mxGeometry y="112" width="370" height="30" as="geometry" />
        </mxCell>
        <mxCell id="mrsKuUEuQZDFfCK35eMi-49" value="+ delete() : void" style="text;align=left;verticalAlign=top;spacingLeft=4;spacingRight=4;overflow=hidden;rotatable=0;points=[[0,0.5],[1,0.5]];portConstraint=eastwest;fontStyle=4" vertex="1" parent="mrsKuUEuQZDFfCK35eMi-43">
          <mxGeometry y="142" width="370" height="30" as="geometry" />
        </mxCell>
        <mxCell id="mrsKuUEuQZDFfCK35eMi-50" value="+ search() : void" style="text;align=left;verticalAlign=top;spacingLeft=4;spacingRight=4;overflow=hidden;rotatable=0;points=[[0,0.5],[1,0.5]];portConstraint=eastwest;fontStyle=4" vertex="1" parent="mrsKuUEuQZDFfCK35eMi-43">
          <mxGeometry y="172" width="370" height="30" as="geometry" />
        </mxCell>
        <mxCell id="mrsKuUEuQZDFfCK35eMi-51" value="+ modify() : void" style="text;align=left;verticalAlign=top;spacingLeft=4;spacingRight=4;overflow=hidden;rotatable=0;points=[[0,0.5],[1,0.5]];portConstraint=eastwest;fontStyle=4" vertex="1" parent="mrsKuUEuQZDFfCK35eMi-43">
          <mxGeometry y="202" width="370" height="30" as="geometry" />
        </mxCell>
        <mxCell id="mrsKuUEuQZDFfCK35eMi-52" value="" style="group" vertex="1" connectable="0" parent="1">
          <mxGeometry x="-780" y="1020" width="1350" height="484" as="geometry" />
        </mxCell>
        <mxCell id="mrsKuUEuQZDFfCK35eMi-53" value="" style="group" vertex="1" connectable="0" parent="mrsKuUEuQZDFfCK35eMi-52">
          <mxGeometry y="40" width="1350" height="444" as="geometry" />
        </mxCell>
        <mxCell id="mrsKuUEuQZDFfCK35eMi-54" value="ConditionCL" style="swimlane;fontStyle=0;align=center;verticalAlign=top;childLayout=stackLayout;horizontal=1;startSize=26;horizontalStack=0;resizeParent=1;resizeLast=0;collapsible=1;marginBottom=0;rounded=0;shadow=0;strokeWidth=1;" vertex="1" parent="mrsKuUEuQZDFfCK35eMi-53">
          <mxGeometry x="285" y="180" width="160" height="94" as="geometry">
            <mxRectangle x="130" y="380" width="160" height="26" as="alternateBounds" />
          </mxGeometry>
        </mxCell>
        <mxCell id="mrsKuUEuQZDFfCK35eMi-55" value="+ ConditionCL(string)" style="text;align=left;verticalAlign=top;spacingLeft=4;spacingRight=4;overflow=hidden;rotatable=0;points=[[0,0.5],[1,0.5]];portConstraint=eastwest;" vertex="1" parent="mrsKuUEuQZDFfCK35eMi-54">
          <mxGeometry y="26" width="160" height="34" as="geometry" />
        </mxCell>
        <mxCell id="mrsKuUEuQZDFfCK35eMi-56" value="+ isMatch(Employee) : bool" style="text;align=left;verticalAlign=top;spacingLeft=4;spacingRight=4;overflow=hidden;rotatable=0;points=[[0,0.5],[1,0.5]];portConstraint=eastwest;" vertex="1" parent="mrsKuUEuQZDFfCK35eMi-54">
          <mxGeometry y="60" width="160" height="34" as="geometry" />
        </mxCell>
        <mxCell id="mrsKuUEuQZDFfCK35eMi-57" value="ConditionPhoneNumber" style="swimlane;fontStyle=0;align=center;verticalAlign=top;childLayout=stackLayout;horizontal=1;startSize=26;horizontalStack=0;resizeParent=1;resizeLast=0;collapsible=1;marginBottom=0;rounded=0;shadow=0;strokeWidth=1;" vertex="1" parent="mrsKuUEuQZDFfCK35eMi-53">
          <mxGeometry x="492.5" y="180" width="185" height="94" as="geometry">
            <mxRectangle x="130" y="380" width="160" height="26" as="alternateBounds" />
          </mxGeometry>
        </mxCell>
        <mxCell id="mrsKuUEuQZDFfCK35eMi-58" value="+ ConditionPhoneNumber(string)" style="text;align=left;verticalAlign=top;spacingLeft=4;spacingRight=4;overflow=hidden;rotatable=0;points=[[0,0.5],[1,0.5]];portConstraint=eastwest;" vertex="1" parent="mrsKuUEuQZDFfCK35eMi-57">
          <mxGeometry y="26" width="185" height="34" as="geometry" />
        </mxCell>
        <mxCell id="mrsKuUEuQZDFfCK35eMi-59" value="+ isMatch(Employee) : bool" style="text;align=left;verticalAlign=top;spacingLeft=4;spacingRight=4;overflow=hidden;rotatable=0;points=[[0,0.5],[1,0.5]];portConstraint=eastwest;" vertex="1" parent="mrsKuUEuQZDFfCK35eMi-57">
          <mxGeometry y="60" width="185" height="34" as="geometry" />
        </mxCell>
        <mxCell id="mrsKuUEuQZDFfCK35eMi-60" value="ConditionCerti" style="swimlane;fontStyle=0;align=center;verticalAlign=top;childLayout=stackLayout;horizontal=1;startSize=26;horizontalStack=0;resizeParent=1;resizeLast=0;collapsible=1;marginBottom=0;rounded=0;shadow=0;strokeWidth=1;" vertex="1" parent="mrsKuUEuQZDFfCK35eMi-53">
          <mxGeometry x="790" y="180" width="160" height="94" as="geometry">
            <mxRectangle x="130" y="380" width="160" height="26" as="alternateBounds" />
          </mxGeometry>
        </mxCell>
        <mxCell id="mrsKuUEuQZDFfCK35eMi-61" value="+ ConditionCerti(string)" style="text;align=left;verticalAlign=top;spacingLeft=4;spacingRight=4;overflow=hidden;rotatable=0;points=[[0,0.5],[1,0.5]];portConstraint=eastwest;" vertex="1" parent="mrsKuUEuQZDFfCK35eMi-60">
          <mxGeometry y="26" width="160" height="34" as="geometry" />
        </mxCell>
        <mxCell id="mrsKuUEuQZDFfCK35eMi-62" value="+ isMatch(Employee) : bool" style="text;align=left;verticalAlign=top;spacingLeft=4;spacingRight=4;overflow=hidden;rotatable=0;points=[[0,0.5],[1,0.5]];portConstraint=eastwest;" vertex="1" parent="mrsKuUEuQZDFfCK35eMi-60">
          <mxGeometry y="60" width="160" height="34" as="geometry" />
        </mxCell>
        <mxCell id="mrsKuUEuQZDFfCK35eMi-63" value="ConditionFirstName" style="swimlane;fontStyle=0;align=center;verticalAlign=top;childLayout=stackLayout;horizontal=1;startSize=26;horizontalStack=0;resizeParent=1;resizeLast=0;collapsible=1;marginBottom=0;rounded=0;shadow=0;strokeWidth=1;" vertex="1" parent="mrsKuUEuQZDFfCK35eMi-53">
          <mxGeometry x="-20" y="350" width="170" height="94" as="geometry">
            <mxRectangle x="130" y="380" width="160" height="26" as="alternateBounds" />
          </mxGeometry>
        </mxCell>
        <mxCell id="mrsKuUEuQZDFfCK35eMi-64" value="+ ConditionFirstName(string)" style="text;align=left;verticalAlign=top;spacingLeft=4;spacingRight=4;overflow=hidden;rotatable=0;points=[[0,0.5],[1,0.5]];portConstraint=eastwest;" vertex="1" parent="mrsKuUEuQZDFfCK35eMi-63">
          <mxGeometry y="26" width="170" height="34" as="geometry" />
        </mxCell>
        <mxCell id="mrsKuUEuQZDFfCK35eMi-65" value="+ isMatch(Employee) : bool" style="text;align=left;verticalAlign=top;spacingLeft=4;spacingRight=4;overflow=hidden;rotatable=0;points=[[0,0.5],[1,0.5]];portConstraint=eastwest;" vertex="1" parent="mrsKuUEuQZDFfCK35eMi-63">
          <mxGeometry y="60" width="170" height="34" as="geometry" />
        </mxCell>
        <mxCell id="mrsKuUEuQZDFfCK35eMi-66" value="ConditionLastName" style="swimlane;fontStyle=0;align=center;verticalAlign=top;childLayout=stackLayout;horizontal=1;startSize=26;horizontalStack=0;resizeParent=1;resizeLast=0;collapsible=1;marginBottom=0;rounded=0;shadow=0;strokeWidth=1;" vertex="1" parent="mrsKuUEuQZDFfCK35eMi-53">
          <mxGeometry x="170" y="350" width="170" height="94" as="geometry">
            <mxRectangle x="130" y="380" width="160" height="26" as="alternateBounds" />
          </mxGeometry>
        </mxCell>
        <mxCell id="mrsKuUEuQZDFfCK35eMi-67" value="+ ConditionLastName(string)" style="text;align=left;verticalAlign=top;spacingLeft=4;spacingRight=4;overflow=hidden;rotatable=0;points=[[0,0.5],[1,0.5]];portConstraint=eastwest;" vertex="1" parent="mrsKuUEuQZDFfCK35eMi-66">
          <mxGeometry y="26" width="170" height="34" as="geometry" />
        </mxCell>
        <mxCell id="mrsKuUEuQZDFfCK35eMi-68" value="+ isMatch(Employee) : bool" style="text;align=left;verticalAlign=top;spacingLeft=4;spacingRight=4;overflow=hidden;rotatable=0;points=[[0,0.5],[1,0.5]];portConstraint=eastwest;" vertex="1" parent="mrsKuUEuQZDFfCK35eMi-66">
          <mxGeometry y="60" width="170" height="34" as="geometry" />
        </mxCell>
        <mxCell id="mrsKuUEuQZDFfCK35eMi-69" value="ConditionName" style="swimlane;fontStyle=0;align=center;verticalAlign=top;childLayout=stackLayout;horizontal=1;startSize=26;horizontalStack=0;resizeParent=1;resizeLast=0;collapsible=1;marginBottom=0;rounded=0;shadow=0;strokeWidth=1;" vertex="1" parent="mrsKuUEuQZDFfCK35eMi-53">
          <mxGeometry x="80" y="180" width="160" height="94" as="geometry">
            <mxRectangle x="130" y="380" width="160" height="26" as="alternateBounds" />
          </mxGeometry>
        </mxCell>
        <mxCell id="mrsKuUEuQZDFfCK35eMi-70" value="+ ConditionName(string)" style="text;align=left;verticalAlign=top;spacingLeft=4;spacingRight=4;overflow=hidden;rotatable=0;points=[[0,0.5],[1,0.5]];portConstraint=eastwest;" vertex="1" parent="mrsKuUEuQZDFfCK35eMi-69">
          <mxGeometry y="26" width="160" height="34" as="geometry" />
        </mxCell>
        <mxCell id="mrsKuUEuQZDFfCK35eMi-71" value="+ isMatch(Employee) : bool" style="text;align=left;verticalAlign=top;spacingLeft=4;spacingRight=4;overflow=hidden;rotatable=0;points=[[0,0.5],[1,0.5]];portConstraint=eastwest;" vertex="1" parent="mrsKuUEuQZDFfCK35eMi-69">
          <mxGeometry y="60" width="160" height="34" as="geometry" />
        </mxCell>
        <mxCell id="mrsKuUEuQZDFfCK35eMi-72" value="ConditionBirthday" style="swimlane;fontStyle=0;align=center;verticalAlign=top;childLayout=stackLayout;horizontal=1;startSize=26;horizontalStack=0;resizeParent=1;resizeLast=0;collapsible=1;marginBottom=0;rounded=0;shadow=0;strokeWidth=1;" vertex="1" parent="mrsKuUEuQZDFfCK35eMi-53">
          <mxGeometry x="1054" y="180" width="160" height="94" as="geometry">
            <mxRectangle x="130" y="380" width="160" height="26" as="alternateBounds" />
          </mxGeometry>
        </mxCell>
        <mxCell id="mrsKuUEuQZDFfCK35eMi-73" value="+ ConditionBirthday(string)" style="text;align=left;verticalAlign=top;spacingLeft=4;spacingRight=4;overflow=hidden;rotatable=0;points=[[0,0.5],[1,0.5]];portConstraint=eastwest;" vertex="1" parent="mrsKuUEuQZDFfCK35eMi-72">
          <mxGeometry y="26" width="160" height="34" as="geometry" />
        </mxCell>
        <mxCell id="mrsKuUEuQZDFfCK35eMi-74" value="+ isMatch(Employee) : bool" style="text;align=left;verticalAlign=top;spacingLeft=4;spacingRight=4;overflow=hidden;rotatable=0;points=[[0,0.5],[1,0.5]];portConstraint=eastwest;" vertex="1" parent="mrsKuUEuQZDFfCK35eMi-72">
          <mxGeometry y="60" width="160" height="34" as="geometry" />
        </mxCell>
        <mxCell id="mrsKuUEuQZDFfCK35eMi-75" value="ConditionMiddlePhoneNumber" style="swimlane;fontStyle=0;align=center;verticalAlign=top;childLayout=stackLayout;horizontal=1;startSize=26;horizontalStack=0;resizeParent=1;resizeLast=0;collapsible=1;marginBottom=0;rounded=0;shadow=0;strokeWidth=1;" vertex="1" parent="mrsKuUEuQZDFfCK35eMi-53">
          <mxGeometry x="360" y="350" width="220" height="94" as="geometry">
            <mxRectangle x="130" y="380" width="160" height="26" as="alternateBounds" />
          </mxGeometry>
        </mxCell>
        <mxCell id="mrsKuUEuQZDFfCK35eMi-76" value="+ ConditionMiddlePhoneNumber(string)" style="text;align=left;verticalAlign=top;spacingLeft=4;spacingRight=4;overflow=hidden;rotatable=0;points=[[0,0.5],[1,0.5]];portConstraint=eastwest;" vertex="1" parent="mrsKuUEuQZDFfCK35eMi-75">
          <mxGeometry y="26" width="220" height="34" as="geometry" />
        </mxCell>
        <mxCell id="mrsKuUEuQZDFfCK35eMi-77" value="+ isMatch(Employee) : bool" style="text;align=left;verticalAlign=top;spacingLeft=4;spacingRight=4;overflow=hidden;rotatable=0;points=[[0,0.5],[1,0.5]];portConstraint=eastwest;" vertex="1" parent="mrsKuUEuQZDFfCK35eMi-75">
          <mxGeometry y="60" width="220" height="34" as="geometry" />
        </mxCell>
        <mxCell id="mrsKuUEuQZDFfCK35eMi-78" value="ConditionLastPhoneNumber" style="swimlane;fontStyle=0;align=center;verticalAlign=top;childLayout=stackLayout;horizontal=1;startSize=26;horizontalStack=0;resizeParent=1;resizeLast=0;collapsible=1;marginBottom=0;rounded=0;shadow=0;strokeWidth=1;" vertex="1" parent="mrsKuUEuQZDFfCK35eMi-53">
          <mxGeometry x="600" y="350" width="210" height="94" as="geometry">
            <mxRectangle x="130" y="380" width="160" height="26" as="alternateBounds" />
          </mxGeometry>
        </mxCell>
        <mxCell id="mrsKuUEuQZDFfCK35eMi-79" value="+ ConditionLastPhoneNumber(string)" style="text;align=left;verticalAlign=top;spacingLeft=4;spacingRight=4;overflow=hidden;rotatable=0;points=[[0,0.5],[1,0.5]];portConstraint=eastwest;" vertex="1" parent="mrsKuUEuQZDFfCK35eMi-78">
          <mxGeometry y="26" width="210" height="34" as="geometry" />
        </mxCell>
        <mxCell id="mrsKuUEuQZDFfCK35eMi-80" value="+ isMatch(Employee) : bool" style="text;align=left;verticalAlign=top;spacingLeft=4;spacingRight=4;overflow=hidden;rotatable=0;points=[[0,0.5],[1,0.5]];portConstraint=eastwest;" vertex="1" parent="mrsKuUEuQZDFfCK35eMi-78">
          <mxGeometry y="60" width="210" height="34" as="geometry" />
        </mxCell>
        <mxCell id="mrsKuUEuQZDFfCK35eMi-81" value="ConditionYearBirthday" style="swimlane;fontStyle=0;align=center;verticalAlign=top;childLayout=stackLayout;horizontal=1;startSize=26;horizontalStack=0;resizeParent=1;resizeLast=0;collapsible=1;marginBottom=0;rounded=0;shadow=0;strokeWidth=1;" vertex="1" parent="mrsKuUEuQZDFfCK35eMi-53">
          <mxGeometry x="850" y="350" width="179" height="94" as="geometry">
            <mxRectangle x="130" y="380" width="160" height="26" as="alternateBounds" />
          </mxGeometry>
        </mxCell>
        <mxCell id="mrsKuUEuQZDFfCK35eMi-82" value="+ ConditionYearBirthday(string)" style="text;align=left;verticalAlign=top;spacingLeft=4;spacingRight=4;overflow=hidden;rotatable=0;points=[[0,0.5],[1,0.5]];portConstraint=eastwest;" vertex="1" parent="mrsKuUEuQZDFfCK35eMi-81">
          <mxGeometry y="26" width="179" height="34" as="geometry" />
        </mxCell>
        <mxCell id="mrsKuUEuQZDFfCK35eMi-83" value="+ isMatch(Employee) : bool" style="text;align=left;verticalAlign=top;spacingLeft=4;spacingRight=4;overflow=hidden;rotatable=0;points=[[0,0.5],[1,0.5]];portConstraint=eastwest;" vertex="1" parent="mrsKuUEuQZDFfCK35eMi-81">
          <mxGeometry y="60" width="179" height="34" as="geometry" />
        </mxCell>
        <mxCell id="mrsKuUEuQZDFfCK35eMi-84" value="ConditionMonthBirthday" style="swimlane;fontStyle=0;align=center;verticalAlign=top;childLayout=stackLayout;horizontal=1;startSize=26;horizontalStack=0;resizeParent=1;resizeLast=0;collapsible=1;marginBottom=0;rounded=0;shadow=0;strokeWidth=1;" vertex="1" parent="mrsKuUEuQZDFfCK35eMi-53">
          <mxGeometry x="1040" y="350" width="190" height="94" as="geometry">
            <mxRectangle x="130" y="380" width="160" height="26" as="alternateBounds" />
          </mxGeometry>
        </mxCell>
        <mxCell id="mrsKuUEuQZDFfCK35eMi-85" value="+ ConditionMonthBirthday(string)" style="text;align=left;verticalAlign=top;spacingLeft=4;spacingRight=4;overflow=hidden;rotatable=0;points=[[0,0.5],[1,0.5]];portConstraint=eastwest;" vertex="1" parent="mrsKuUEuQZDFfCK35eMi-84">
          <mxGeometry y="26" width="190" height="34" as="geometry" />
        </mxCell>
        <mxCell id="mrsKuUEuQZDFfCK35eMi-86" value="+ isMatch(Employee) : bool" style="text;align=left;verticalAlign=top;spacingLeft=4;spacingRight=4;overflow=hidden;rotatable=0;points=[[0,0.5],[1,0.5]];portConstraint=eastwest;" vertex="1" parent="mrsKuUEuQZDFfCK35eMi-84">
          <mxGeometry y="60" width="190" height="34" as="geometry" />
        </mxCell>
        <mxCell id="mrsKuUEuQZDFfCK35eMi-87" value="Extends" style="endArrow=block;endSize=16;endFill=0;html=1;rounded=0;edgeStyle=elbowEdgeStyle;elbow=vertical;" edge="1" parent="mrsKuUEuQZDFfCK35eMi-53" source="mrsKuUEuQZDFfCK35eMi-63" target="mrsKuUEuQZDFfCK35eMi-69">
          <mxGeometry x="-0.8095" width="160" relative="1" as="geometry">
            <mxPoint x="30" y="300" as="sourcePoint" />
            <mxPoint x="435" y="180" as="targetPoint" />
            <mxPoint y="1" as="offset" />
          </mxGeometry>
        </mxCell>
        <mxCell id="mrsKuUEuQZDFfCK35eMi-88" value="Extends" style="endArrow=block;endSize=16;endFill=0;html=1;rounded=0;edgeStyle=elbowEdgeStyle;elbow=vertical;" edge="1" parent="mrsKuUEuQZDFfCK35eMi-53" source="mrsKuUEuQZDFfCK35eMi-66" target="mrsKuUEuQZDFfCK35eMi-69">
          <mxGeometry x="-0.8095" width="160" relative="1" as="geometry">
            <mxPoint x="50" y="360" as="sourcePoint" />
            <mxPoint x="190" y="250" as="targetPoint" />
            <mxPoint y="1" as="offset" />
          </mxGeometry>
        </mxCell>
        <mxCell id="mrsKuUEuQZDFfCK35eMi-89" value="Extends" style="endArrow=block;endSize=16;endFill=0;html=1;rounded=0;edgeStyle=elbowEdgeStyle;elbow=vertical;" edge="1" parent="mrsKuUEuQZDFfCK35eMi-53" source="mrsKuUEuQZDFfCK35eMi-75" target="mrsKuUEuQZDFfCK35eMi-57">
          <mxGeometry x="-0.8095" width="160" relative="1" as="geometry">
            <mxPoint x="489.9999999999998" y="350" as="sourcePoint" />
            <mxPoint x="590" y="240" as="targetPoint" />
            <mxPoint y="1" as="offset" />
          </mxGeometry>
        </mxCell>
        <mxCell id="mrsKuUEuQZDFfCK35eMi-90" value="Extends" style="endArrow=block;endSize=16;endFill=0;html=1;rounded=0;edgeStyle=elbowEdgeStyle;elbow=vertical;" edge="1" parent="mrsKuUEuQZDFfCK35eMi-53" source="mrsKuUEuQZDFfCK35eMi-78" target="mrsKuUEuQZDFfCK35eMi-57">
          <mxGeometry x="-0.8095" width="160" relative="1" as="geometry">
            <mxPoint x="680" y="350" as="sourcePoint" />
            <mxPoint x="770" y="240" as="targetPoint" />
            <mxPoint y="1" as="offset" />
          </mxGeometry>
        </mxCell>
        <mxCell id="mrsKuUEuQZDFfCK35eMi-91" value="Extends" style="endArrow=block;endSize=16;endFill=0;html=1;rounded=0;edgeStyle=elbowEdgeStyle;elbow=vertical;" edge="1" parent="mrsKuUEuQZDFfCK35eMi-53" source="mrsKuUEuQZDFfCK35eMi-81" target="mrsKuUEuQZDFfCK35eMi-72">
          <mxGeometry x="-0.8095" width="160" relative="1" as="geometry">
            <mxPoint x="900" y="350" as="sourcePoint" />
            <mxPoint x="990" y="240" as="targetPoint" />
            <mxPoint y="1" as="offset" />
          </mxGeometry>
        </mxCell>
        <mxCell id="mrsKuUEuQZDFfCK35eMi-92" value="Extends" style="endArrow=block;endSize=16;endFill=0;html=1;rounded=0;edgeStyle=elbowEdgeStyle;elbow=vertical;" edge="1" parent="mrsKuUEuQZDFfCK35eMi-53" source="mrsKuUEuQZDFfCK35eMi-84" target="mrsKuUEuQZDFfCK35eMi-72">
          <mxGeometry x="-0.1667" width="160" relative="1" as="geometry">
            <mxPoint x="1080" y="380" as="sourcePoint" />
            <mxPoint x="1080" y="260" as="targetPoint" />
            <mxPoint y="-1" as="offset" />
          </mxGeometry>
        </mxCell>
        <mxCell id="mrsKuUEuQZDFfCK35eMi-93" value="ConditionDayBirthday" style="swimlane;fontStyle=0;align=center;verticalAlign=top;childLayout=stackLayout;horizontal=1;startSize=26;horizontalStack=0;resizeParent=1;resizeLast=0;collapsible=1;marginBottom=0;rounded=0;shadow=0;strokeWidth=1;" vertex="1" parent="mrsKuUEuQZDFfCK35eMi-53">
          <mxGeometry x="1240" y="350" width="181" height="94" as="geometry">
            <mxRectangle x="130" y="380" width="160" height="26" as="alternateBounds" />
          </mxGeometry>
        </mxCell>
        <mxCell id="mrsKuUEuQZDFfCK35eMi-94" value="+ ConditionDayBirthday(string)" style="text;align=left;verticalAlign=top;spacingLeft=4;spacingRight=4;overflow=hidden;rotatable=0;points=[[0,0.5],[1,0.5]];portConstraint=eastwest;" vertex="1" parent="mrsKuUEuQZDFfCK35eMi-93">
          <mxGeometry y="26" width="181" height="34" as="geometry" />
        </mxCell>
        <mxCell id="mrsKuUEuQZDFfCK35eMi-95" value="+ isMatch(Employee) : bool" style="text;align=left;verticalAlign=top;spacingLeft=4;spacingRight=4;overflow=hidden;rotatable=0;points=[[0,0.5],[1,0.5]];portConstraint=eastwest;" vertex="1" parent="mrsKuUEuQZDFfCK35eMi-93">
          <mxGeometry y="60" width="181" height="34" as="geometry" />
        </mxCell>
        <mxCell id="mrsKuUEuQZDFfCK35eMi-96" value="Extends" style="endArrow=block;endSize=16;endFill=0;html=1;rounded=0;edgeStyle=elbowEdgeStyle;elbow=vertical;" edge="1" parent="mrsKuUEuQZDFfCK35eMi-53" source="mrsKuUEuQZDFfCK35eMi-93" target="mrsKuUEuQZDFfCK35eMi-72">
          <mxGeometry x="-0.8095" width="160" relative="1" as="geometry">
            <mxPoint x="909.375" y="360" as="sourcePoint" />
            <mxPoint x="1084" y="250" as="targetPoint" />
            <mxPoint y="1" as="offset" />
          </mxGeometry>
        </mxCell>
        <mxCell id="mrsKuUEuQZDFfCK35eMi-97" value="Condition" style="swimlane;fontStyle=0;align=center;verticalAlign=top;childLayout=stackLayout;horizontal=1;startSize=26;horizontalStack=0;resizeParent=1;resizeLast=0;collapsible=1;marginBottom=0;rounded=0;shadow=0;strokeWidth=1;" vertex="1" parent="mrsKuUEuQZDFfCK35eMi-52">
          <mxGeometry x="476.25" width="217.5" height="120" as="geometry">
            <mxRectangle x="130" y="380" width="160" height="26" as="alternateBounds" />
          </mxGeometry>
        </mxCell>
        <mxCell id="mrsKuUEuQZDFfCK35eMi-98" value="- string compareString" style="text;align=left;verticalAlign=top;spacingLeft=4;spacingRight=4;overflow=hidden;rotatable=0;points=[[0,0.5],[1,0.5]];portConstraint=eastwest;" vertex="1" parent="mrsKuUEuQZDFfCK35eMi-97">
          <mxGeometry y="26" width="217.5" height="26" as="geometry" />
        </mxCell>
        <mxCell id="mrsKuUEuQZDFfCK35eMi-99" value="" style="line;html=1;strokeWidth=1;align=left;verticalAlign=middle;spacingTop=-1;spacingLeft=3;spacingRight=3;rotatable=0;labelPosition=right;points=[];portConstraint=eastwest;" vertex="1" parent="mrsKuUEuQZDFfCK35eMi-97">
          <mxGeometry y="52" width="217.5" height="8" as="geometry" />
        </mxCell>
        <mxCell id="mrsKuUEuQZDFfCK35eMi-100" value="+ isMatch(Employee) : bool" style="text;align=left;verticalAlign=top;spacingLeft=4;spacingRight=4;overflow=hidden;rotatable=0;points=[[0,0.5],[1,0.5]];portConstraint=eastwest;fontStyle=4" vertex="1" parent="mrsKuUEuQZDFfCK35eMi-97">
          <mxGeometry y="60" width="217.5" height="30" as="geometry" />
        </mxCell>
        <mxCell id="mrsKuUEuQZDFfCK35eMi-101" value="+ getCompareString() : string" style="text;align=left;verticalAlign=top;spacingLeft=4;spacingRight=4;overflow=hidden;rotatable=0;points=[[0,0.5],[1,0.5]];portConstraint=eastwest;fontStyle=4" vertex="1" parent="mrsKuUEuQZDFfCK35eMi-97">
          <mxGeometry y="90" width="217.5" height="30" as="geometry" />
        </mxCell>
        <mxCell id="mrsKuUEuQZDFfCK35eMi-102" value="Extends" style="endArrow=block;endSize=16;endFill=0;html=1;rounded=0;exitX=0.5;exitY=0;exitDx=0;exitDy=0;edgeStyle=elbowEdgeStyle;elbow=vertical;" edge="1" parent="mrsKuUEuQZDFfCK35eMi-52" source="mrsKuUEuQZDFfCK35eMi-72" target="mrsKuUEuQZDFfCK35eMi-97">
          <mxGeometry x="-0.8058" width="160" relative="1" as="geometry">
            <mxPoint y="1180" as="sourcePoint" />
            <mxPoint x="-195" y="1179" as="targetPoint" />
            <mxPoint y="1" as="offset" />
          </mxGeometry>
        </mxCell>
        <mxCell id="mrsKuUEuQZDFfCK35eMi-103" value="Extends" style="endArrow=block;endSize=16;endFill=0;html=1;rounded=0;exitX=0.5;exitY=0;exitDx=0;exitDy=0;edgeStyle=elbowEdgeStyle;elbow=vertical;" edge="1" parent="mrsKuUEuQZDFfCK35eMi-52" source="mrsKuUEuQZDFfCK35eMi-69" target="mrsKuUEuQZDFfCK35eMi-97">
          <mxGeometry x="-0.8095" width="160" relative="1" as="geometry">
            <mxPoint x="-650" y="1140" as="sourcePoint" />
            <mxPoint x="-195" y="1179" as="targetPoint" />
            <mxPoint y="1" as="offset" />
          </mxGeometry>
        </mxCell>
        <mxCell id="mrsKuUEuQZDFfCK35eMi-104" value="Extends" style="endArrow=block;endSize=16;endFill=0;html=1;rounded=0;exitX=0.5;exitY=0;exitDx=0;exitDy=0;edgeStyle=elbowEdgeStyle;elbow=vertical;" edge="1" parent="mrsKuUEuQZDFfCK35eMi-52" source="mrsKuUEuQZDFfCK35eMi-60" target="mrsKuUEuQZDFfCK35eMi-97">
          <mxGeometry x="-0.6875" width="160" relative="1" as="geometry">
            <mxPoint x="-185" y="1180" as="sourcePoint" />
            <mxPoint x="-195" y="1179" as="targetPoint" />
            <mxPoint y="1" as="offset" />
          </mxGeometry>
        </mxCell>
        <mxCell id="mrsKuUEuQZDFfCK35eMi-105" value="Extends" style="endArrow=block;endSize=16;endFill=0;html=1;rounded=0;exitX=0.5;exitY=0;exitDx=0;exitDy=0;edgeStyle=elbowEdgeStyle;elbow=vertical;" edge="1" parent="mrsKuUEuQZDFfCK35eMi-52" source="mrsKuUEuQZDFfCK35eMi-57" target="mrsKuUEuQZDFfCK35eMi-97">
          <mxGeometry x="-0.1667" width="160" relative="1" as="geometry">
            <mxPoint x="-385" y="1180" as="sourcePoint" />
            <mxPoint x="-195" y="1179" as="targetPoint" />
            <mxPoint y="-1" as="offset" />
          </mxGeometry>
        </mxCell>
        <mxCell id="mrsKuUEuQZDFfCK35eMi-106" value="Extends" style="endArrow=block;endSize=16;endFill=0;html=1;rounded=0;exitX=0.5;exitY=0;exitDx=0;exitDy=0;edgeStyle=elbowEdgeStyle;elbow=vertical;" edge="1" parent="mrsKuUEuQZDFfCK35eMi-52" source="mrsKuUEuQZDFfCK35eMi-54" target="mrsKuUEuQZDFfCK35eMi-97">
          <mxGeometry x="-0.6878" width="160" relative="1" as="geometry">
            <mxPoint x="-405" y="1140" as="sourcePoint" />
            <mxPoint x="-195" y="1179" as="targetPoint" />
            <mxPoint y="-1" as="offset" />
          </mxGeometry>
        </mxCell>
        <mxCell id="mrsKuUEuQZDFfCK35eMi-107" value="Command" style="swimlane;fontStyle=0;align=center;verticalAlign=top;childLayout=stackLayout;horizontal=1;startSize=26;horizontalStack=0;resizeParent=1;resizeLast=0;collapsible=1;marginBottom=0;rounded=0;shadow=0;strokeWidth=1;" vertex="1" parent="1">
          <mxGeometry x="-270" y="590" width="200" height="80" as="geometry">
            <mxRectangle x="130" y="380" width="160" height="26" as="alternateBounds" />
          </mxGeometry>
        </mxCell>
        <mxCell id="mrsKuUEuQZDFfCK35eMi-108" value="- vector&lt;Employee&gt; returnList" style="text;align=left;verticalAlign=top;spacingLeft=4;spacingRight=4;overflow=hidden;rotatable=0;points=[[0,0.5],[1,0.5]];portConstraint=eastwest;" vertex="1" parent="mrsKuUEuQZDFfCK35eMi-107">
          <mxGeometry y="26" width="200" height="26" as="geometry" />
        </mxCell>
        <mxCell id="mrsKuUEuQZDFfCK35eMi-109" value="" style="line;html=1;strokeWidth=1;align=left;verticalAlign=middle;spacingTop=-1;spacingLeft=3;spacingRight=3;rotatable=0;labelPosition=right;points=[];portConstraint=eastwest;" vertex="1" parent="mrsKuUEuQZDFfCK35eMi-107">
          <mxGeometry y="52" width="200" height="8" as="geometry" />
        </mxCell>
        <mxCell id="Tzxz5ONFUkKFy1vuHFlu-1" value="OutputBuilderWithOption1" style="swimlane;fontStyle=0;align=center;verticalAlign=top;childLayout=stackLayout;horizontal=1;startSize=26;horizontalStack=0;resizeParent=1;resizeLast=0;collapsible=1;marginBottom=0;rounded=0;shadow=0;strokeWidth=1;" vertex="1" parent="1">
          <mxGeometry x="-700" width="260" height="176" as="geometry">
            <mxRectangle x="130" y="380" width="160" height="26" as="alternateBounds" />
          </mxGeometry>
        </mxCell>
        <mxCell id="Tzxz5ONFUkKFy1vuHFlu-2" value="- vector&lt;vector&lt;Employee&gt;&gt; outputList" style="text;align=left;verticalAlign=top;spacingLeft=4;spacingRight=4;overflow=hidden;rotatable=0;points=[[0,0.5],[1,0.5]];portConstraint=eastwest;" vertex="1" parent="Tzxz5ONFUkKFy1vuHFlu-1">
          <mxGeometry y="26" width="260" height="26" as="geometry" />
        </mxCell>
        <mxCell id="Tzxz5ONFUkKFy1vuHFlu-3" value="" style="line;html=1;strokeWidth=1;align=left;verticalAlign=middle;spacingTop=-1;spacingLeft=3;spacingRight=3;rotatable=0;labelPosition=right;points=[];portConstraint=eastwest;" vertex="1" parent="Tzxz5ONFUkKFy1vuHFlu-1">
          <mxGeometry y="52" width="260" height="8" as="geometry" />
        </mxCell>
        <mxCell id="Tzxz5ONFUkKFy1vuHFlu-4" value="+ printResult() : void" style="text;align=left;verticalAlign=top;spacingLeft=4;spacingRight=4;overflow=hidden;rotatable=0;points=[[0,0.5],[1,0.5]];portConstraint=eastwest;fontStyle=4" vertex="1" parent="Tzxz5ONFUkKFy1vuHFlu-1">
          <mxGeometry y="60" width="260" height="30" as="geometry" />
        </mxCell>
        <mxCell id="Tzxz5ONFUkKFy1vuHFlu-5" value="+ addResult(vector&lt;Employee&gt;) : void" style="text;align=left;verticalAlign=top;spacingLeft=4;spacingRight=4;overflow=hidden;rotatable=0;points=[[0,0.5],[1,0.5]];portConstraint=eastwest;fontStyle=4" vertex="1" parent="Tzxz5ONFUkKFy1vuHFlu-1">
          <mxGeometry y="90" width="260" height="30" as="geometry" />
        </mxCell>
        <mxCell id="Tzxz5ONFUkKFy1vuHFlu-6" value="+ isNone(vector&lt;Employee&gt;) : bool" style="text;align=left;verticalAlign=top;spacingLeft=4;spacingRight=4;overflow=hidden;rotatable=0;points=[[0,0.5],[1,0.5]];portConstraint=eastwest;fontStyle=4" vertex="1" parent="Tzxz5ONFUkKFy1vuHFlu-1">
          <mxGeometry y="120" width="260" height="30" as="geometry" />
        </mxCell>
      </root>
    </mxGraphModel>
  </diagram>
</mxfile>
